<svg xmlns="http://www.w3.org/2000/svg" xmlns:xlink="http://www.w3.org/1999/xlink" width="48" zoomAndPan="magnify" viewBox="0 0 36 30.000001" height="40" preserveAspectRatio="xMidYMid meet" version="1.0"><defs><clipPath id="4f1d3b7dbe"><path d="M 3.59375 0.109375 L 32.625 0.109375 L 32.625 29.03125 L 3.59375 29.03125 Z M 3.59375 0.109375 " clip-rule="nonzero"/></clipPath><clipPath id="7a97759d57"><path d="M 5 2.621094 L 31 2.621094 L 31 26.574219 L 5 26.574219 Z M 5 2.621094 " clip-rule="nonzero"/></clipPath></defs><g clip-path="url(#4f1d3b7dbe)"><path fill="#e2dcc8" d="M 18.109375 0.109375 C 26.128906 0.109375 32.625 6.605469 32.625 14.625 C 32.625 22.644531 26.128906 29.140625 18.109375 29.140625 C 10.089844 29.140625 3.59375 22.644531 3.59375 14.625 C 3.59375 6.605469 10.089844 0.109375 18.109375 0.109375 Z M 18.109375 0.109375 " fill-opacity="1" fill-rule="nonzero"/></g><g clip-path="url(#7a97759d57)"><path fill="#0f3d3e" d="M 5.472656 2.84375 C 5.070312 3.019531 4.925781 3.511719 5.199219 3.785156 C 5.34375 3.929688 5.703125 4 6.367188 4.015625 C 7.195312 4.03125 7.402344 4.085938 7.894531 4.441406 C 9.265625 5.417969 9.84375 7.429688 11 15.273438 C 11.425781 18.160156 11.722656 19.210938 12.246094 19.679688 C 12.410156 19.828125 12.503906 20.097656 12.503906 20.410156 C 12.503906 21.582031 13.527344 22.742188 15.058594 23.300781 L 15.835938 23.585938 C 15.78125 24.402344 15.597656 25.234375 16.753906 26.097656 C 17.324219 26.527344 18.683594 26.574219 19.421875 26.195312 C 19.957031 25.917969 20.667969 25.023438 20.875 24.371094 C 20.933594 24.183594 21.085938 24.121094 21.488281 24.121094 C 21.929688 24.121094 22.050781 24.179688 22.148438 24.449219 C 22.34375 24.957031 23.132812 25.796875 23.605469 26 C 23.851562 26.105469 24.371094 26.1875 24.773438 26.1875 C 26.015625 26.1875 26.824219 25.429688 26.996094 24.109375 C 27.078125 23.480469 27.09375 23.46875 27.648438 23.378906 C 28.453125 23.25 28.851562 22.949219 28.796875 22.515625 C 28.71875 21.878906 28.464844 21.84375 26.210938 22.175781 C 21.199219 22.910156 18.035156 22.875 15.539062 22.058594 C 14.914062 21.855469 14.566406 21.636719 14.195312 21.226562 C 13.925781 20.925781 13.726562 20.648438 13.757812 20.617188 C 13.789062 20.589844 14.332031 20.632812 14.953125 20.710938 C 16.691406 20.933594 24.222656 20.941406 25.160156 20.722656 C 26.277344 20.464844 27.097656 19.890625 27.589844 19.023438 C 28.519531 17.386719 30.808594 9.457031 30.957031 7.367188 C 31.027344 6.335938 31.019531 6.296875 30.632812 5.902344 C 28.535156 3.761719 12.542969 6.03125 10.628906 5.515625 C 10.453125 5.46875 10.195312 5.199219 10.042969 4.898438 C 9.691406 4.207031 8.957031 3.476562 8.242188 3.109375 C 7.609375 2.777344 5.976562 2.625 5.472656 2.84375 Z M 22.765625 12.90625 C 22.472656 12.894531 18.421875 12.761719 18.164062 12.660156 C 17.917969 12.558594 17.769531 11.558594 16.902344 8.777344 C 16.566406 7.691406 16.304688 6.789062 16.328125 6.769531 C 16.449219 6.660156 24.421875 6.210938 24.304688 6.59375 C 24.320312 6.59375 24.382812 6.242188 22.765625 12.90625 Z M 29.546875 7.394531 C 29.523438 7.996094 28.585938 12.035156 28.421875 12.214844 C 28.324219 12.332031 25.136719 12.871094 24.566406 12.871094 C 24.199219 12.871094 24.183594 12.84375 24.265625 12.425781 C 24.359375 11.972656 25.285156 8.007812 25.71875 6.386719 C 29.746094 6.613281 29.570312 6.582031 29.546875 7.390625 Z M 16.574219 12.503906 C 14.34375 12.214844 12.277344 11.734375 12.078125 11.628906 C 11.75 11.449219 11.566406 9.601562 10.898438 6.988281 C 11.460938 6.972656 14.25 6.902344 14.636719 6.863281 C 14.90625 6.832031 14.988281 6.980469 15.363281 8.171875 C 15.429688 8.171875 16.570312 12.488281 16.574219 12.503906 Z M 13.890625 13.410156 C 16.558594 13.921875 16.832031 13.734375 16.921875 14.148438 C 17.09375 14.933594 17.804688 19.03125 17.804688 19.246094 C 17.804688 19.472656 17.679688 19.484375 16.230469 19.394531 C 15.363281 19.339844 14.351562 19.207031 13.976562 19.09375 C 13.367188 18.914062 13.269531 18.828125 13.03125 18.289062 C 12.835938 17.851562 12.089844 13.691406 12.089844 13.050781 C 12.089844 13.011719 12.175781 13.019531 12.292969 13.0625 C 12.488281 13.140625 13.90625 13.410156 13.890625 13.410156 Z M 26.078125 18.722656 C 25.742188 19.082031 24.667969 19.453125 23.96875 19.453125 C 23.542969 19.453125 23.515625 19.429688 23.519531 19.011719 C 23.527344 18.304688 23.78125 15.199219 23.871094 14.699219 C 24.007812 13.957031 24 14.445312 26.441406 14.050781 C 27.039062 13.953125 27.632812 13.867188 27.757812 13.855469 C 27.957031 13.835938 27.945312 13.964844 27.640625 14.972656 C 27.683594 14.972656 26.597656 18.167969 26.078125 18.722656 Z M 22.40625 15.273438 C 22.246094 16.363281 22.089844 19.546875 22.089844 19.535156 C 21.960938 19.53125 19.429688 19.5 19.34375 19.414062 C 19.289062 19.363281 18.351562 14.460938 18.347656 14.214844 C 18.34375 14.09375 22.308594 14.238281 22.4375 14.363281 C 22.472656 14.363281 22.5 14.660156 22.40625 15.273438 Z M 25.691406 23.988281 C 25.691406 24.351562 25.097656 24.945312 24.734375 24.945312 C 24.203125 24.945312 23.199219 24.257812 23.414062 24.042969 C 23.496094 23.957031 24.707031 23.757812 25.316406 23.730469 C 25.613281 23.71875 25.691406 23.773438 25.691406 23.988281 Z M 19.105469 24.746094 C 18.675781 25.183594 18.179688 25.300781 17.660156 25.082031 C 17.167969 24.878906 16.9375 24.5 17.0625 24.109375 C 17.140625 23.871094 17.226562 23.835938 17.5625 23.90625 C 18.585938 24.117188 20.125 23.710938 19.105469 24.746094 Z M 19.105469 24.746094 " fill-opacity="1" fill-rule="nonzero"/></g></svg>