<svg xmlns="http://www.w3.org/2000/svg" xmlns:xlink="http://www.w3.org/1999/xlink" width="48" zoomAndPan="magnify" viewBox="0 0 36 30.000001" height="40" preserveAspectRatio="xMidYMid meet" version="1.0"><defs><clipPath id="1c31d22115"><path d="M 0.582031 0 L 35.417969 0 L 35.417969 29.03125 L 0.582031 29.03125 Z M 0.582031 0 " clip-rule="nonzero"/></clipPath><clipPath id="cd366bc92c"><path d="M 3.59375 0.109375 L 32.625 0.109375 L 32.625 29.03125 L 3.59375 29.03125 Z M 3.59375 0.109375 " clip-rule="nonzero"/></clipPath><clipPath id="f1df96b85f"><path d="M 3.484375 3 L 29.613281 3 L 29.613281 26.855469 L 3.484375 26.855469 Z M 3.484375 3 " clip-rule="nonzero"/></clipPath><clipPath id="df86751cd9"><path d="M 27.375 16.269531 L 32.457031 16.269531 L 32.457031 21.347656 L 27.375 21.347656 Z M 27.375 16.269531 " clip-rule="nonzero"/></clipPath></defs><g clip-path="url(#1c31d22115)"><path fill="#ffffff" d="M 0.582031 0 L 35.417969 0 L 35.417969 29.03125 L 0.582031 29.03125 Z M 0.582031 0 " fill-opacity="1" fill-rule="nonzero"/><path fill="#ffffff" d="M 0.582031 0 L 35.417969 0 L 35.417969 29.03125 L 0.582031 29.03125 Z M 0.582031 0 " fill-opacity="1" fill-rule="nonzero"/></g><g clip-path="url(#cd366bc92c)"><path fill="#e2dcc8" d="M 18.109375 0.109375 C 26.128906 0.109375 32.625 6.605469 32.625 14.625 C 32.625 22.644531 26.128906 29.140625 18.109375 29.140625 C 10.089844 29.140625 3.59375 22.644531 3.59375 14.625 C 3.59375 6.605469 10.089844 0.109375 18.109375 0.109375 Z M 18.109375 0.109375 " fill-opacity="1" fill-rule="nonzero"/></g><g clip-path="url(#f1df96b85f)"><path fill="#0f3d3e" d="M 4.042969 3.125 C 3.640625 3.300781 3.5 3.792969 3.769531 4.066406 C 3.914062 4.210938 4.277344 4.28125 4.9375 4.292969 C 5.765625 4.3125 5.972656 4.367188 6.464844 4.722656 C 7.835938 5.699219 8.414062 7.710938 9.570312 15.554688 C 10 18.441406 10.292969 19.492188 10.816406 19.960938 C 10.980469 20.105469 11.078125 20.378906 11.078125 20.691406 C 11.078125 21.863281 12.101562 23.023438 13.628906 23.582031 L 14.40625 23.867188 C 14.351562 24.683594 14.171875 25.515625 15.324219 26.378906 C 15.898438 26.808594 17.257812 26.855469 17.996094 26.476562 C 18.53125 26.199219 19.242188 25.304688 19.445312 24.652344 C 19.503906 24.464844 19.660156 24.402344 20.0625 24.402344 C 20.5 24.402344 20.621094 24.460938 20.722656 24.730469 C 20.914062 25.238281 21.703125 26.078125 22.179688 26.28125 C 22.421875 26.382812 22.941406 26.46875 23.34375 26.46875 C 24.585938 26.46875 25.398438 25.710938 25.570312 24.390625 C 25.648438 23.761719 25.664062 23.75 26.222656 23.660156 C 27.023438 23.53125 27.421875 23.230469 27.371094 22.796875 C 27.292969 22.160156 27.035156 22.125 24.78125 22.457031 C 19.769531 23.191406 16.605469 23.15625 14.109375 22.339844 C 13.488281 22.136719 13.136719 21.917969 12.769531 21.507812 C 12.5 21.207031 12.296875 20.929688 12.328125 20.898438 C 12.359375 20.871094 12.90625 20.914062 13.527344 20.992188 C 15.261719 21.214844 22.792969 21.222656 23.734375 21.003906 C 24.847656 20.746094 25.667969 20.171875 26.160156 19.304688 C 27.089844 17.664062 29.382812 9.738281 29.527344 7.648438 C 29.601562 6.617188 29.589844 6.578125 29.207031 6.183594 C 27.109375 4.042969 11.113281 6.3125 9.199219 5.796875 C 9.027344 5.75 8.769531 5.480469 8.617188 5.179688 C 8.261719 4.488281 7.527344 3.757812 6.816406 3.390625 C 6.179688 3.058594 4.550781 2.902344 4.042969 3.125 Z M 21.335938 13.1875 C 21.042969 13.175781 16.992188 13.042969 16.738281 12.941406 C 16.488281 12.839844 16.34375 11.839844 15.476562 9.058594 C 15.136719 7.972656 14.878906 7.070312 14.898438 7.050781 C 15.023438 6.941406 22.996094 6.492188 22.878906 6.875 C 22.890625 6.875 22.953125 6.519531 21.335938 13.1875 Z M 28.117188 7.675781 C 28.097656 8.277344 27.15625 12.3125 26.996094 12.496094 C 26.894531 12.609375 23.707031 13.152344 23.136719 13.152344 C 22.769531 13.152344 22.753906 13.125 22.839844 12.707031 C 22.929688 12.253906 23.859375 8.289062 24.289062 6.667969 C 28.320312 6.890625 28.144531 6.863281 28.117188 7.671875 Z M 15.144531 12.78125 C 12.917969 12.496094 10.847656 12.015625 10.648438 11.910156 C 10.324219 11.730469 10.136719 9.882812 9.472656 7.269531 C 10.03125 7.253906 12.824219 7.183594 13.207031 7.144531 C 13.476562 7.113281 13.558594 7.261719 13.933594 8.449219 C 14 8.449219 15.140625 12.769531 15.144531 12.78125 Z M 12.464844 13.691406 C 15.128906 14.203125 15.402344 14.015625 15.492188 14.429688 C 15.667969 15.210938 16.375 19.3125 16.375 19.527344 C 16.375 19.753906 16.253906 19.765625 14.800781 19.675781 C 13.933594 19.621094 12.921875 19.488281 12.546875 19.375 C 11.941406 19.195312 11.839844 19.109375 11.601562 18.570312 C 11.410156 18.132812 10.664062 13.972656 10.664062 13.332031 C 10.664062 13.292969 10.746094 13.296875 10.863281 13.34375 C 11.0625 13.421875 12.476562 13.691406 12.464844 13.691406 Z M 24.652344 19.003906 C 24.316406 19.363281 23.242188 19.734375 22.539062 19.734375 C 22.113281 19.734375 22.085938 19.710938 22.089844 19.292969 C 22.097656 18.585938 22.351562 15.480469 22.445312 14.980469 C 22.582031 14.238281 22.570312 14.726562 25.015625 14.332031 C 25.609375 14.234375 26.207031 14.144531 26.328125 14.136719 C 26.53125 14.117188 26.515625 14.246094 26.210938 15.253906 C 26.257812 15.253906 25.171875 18.449219 24.652344 19.003906 Z M 20.980469 15.554688 C 20.816406 16.644531 20.660156 19.828125 20.660156 19.8125 C 20.53125 19.8125 18 19.78125 17.914062 19.695312 C 17.863281 19.644531 16.925781 14.742188 16.917969 14.496094 C 16.917969 14.375 20.882812 14.515625 21.011719 14.644531 C 21.042969 14.644531 21.070312 14.941406 20.980469 15.554688 Z M 24.265625 24.269531 C 24.265625 24.632812 23.667969 25.222656 23.304688 25.222656 C 22.773438 25.222656 21.769531 24.539062 21.984375 24.324219 C 22.070312 24.238281 23.28125 24.039062 23.886719 24.011719 C 24.1875 24 24.265625 24.054688 24.265625 24.269531 Z M 17.675781 25.027344 C 17.246094 25.464844 16.75 25.582031 16.234375 25.363281 C 15.742188 25.160156 15.507812 24.78125 15.636719 24.386719 C 15.710938 24.152344 15.796875 24.117188 16.136719 24.1875 C 17.15625 24.398438 18.695312 23.992188 17.675781 25.027344 Z M 17.675781 25.027344 " fill-opacity="1" fill-rule="nonzero"/></g><g clip-path="url(#df86751cd9)"><path fill="#0f3d3e" d="M 29.324219 18.21875 L 29.324219 16.90625 C 29.324219 16.722656 29.375 16.570312 29.476562 16.457031 C 29.578125 16.339844 29.726562 16.28125 29.914062 16.28125 C 30.105469 16.28125 30.253906 16.339844 30.355469 16.457031 C 30.460938 16.570312 30.511719 16.722656 30.511719 16.90625 L 30.511719 18.21875 L 31.832031 18.21875 C 32.027344 18.21875 32.179688 18.273438 32.289062 18.375 C 32.402344 18.476562 32.460938 18.617188 32.460938 18.800781 C 32.460938 18.988281 32.402344 19.132812 32.289062 19.238281 C 32.179688 19.339844 32.027344 19.394531 31.832031 19.394531 L 30.511719 19.394531 L 30.511719 20.703125 C 30.511719 20.890625 30.460938 21.039062 30.355469 21.15625 C 30.25 21.269531 30.101562 21.328125 29.914062 21.328125 C 29.730469 21.328125 29.582031 21.269531 29.476562 21.15625 C 29.375 21.039062 29.324219 20.890625 29.324219 20.703125 L 29.324219 19.394531 L 28.003906 19.394531 C 27.816406 19.394531 27.664062 19.335938 27.546875 19.222656 C 27.433594 19.109375 27.375 18.96875 27.375 18.800781 C 27.375 18.617188 27.429688 18.476562 27.542969 18.375 C 27.65625 18.273438 27.808594 18.21875 28.003906 18.21875 Z M 29.324219 18.21875 " fill-opacity="1" fill-rule="nonzero"/></g></svg>