<svg xmlns="http://www.w3.org/2000/svg" xmlns:xlink="http://www.w3.org/1999/xlink" width="48" zoomAndPan="magnify" viewBox="0 0 36 30.000001" height="40" preserveAspectRatio="xMidYMid meet" version="1.0"><defs><clipPath id="89377ba987"><path d="M 0.582031 0 L 35.417969 0 L 35.417969 29.03125 L 0.582031 29.03125 Z M 0.582031 0 " clip-rule="nonzero"/></clipPath><clipPath id="754cee9728"><path d="M 0.582031 0 L 32.515625 0 L 32.515625 28.957031 L 0.582031 28.957031 Z M 0.582031 0 " clip-rule="nonzero"/></clipPath><clipPath id="fadb7f6f38"><path d="M 29.394531 18.269531 L 35.199219 18.269531 L 35.199219 24.074219 L 29.394531 24.074219 Z M 29.394531 18.269531 " clip-rule="nonzero"/></clipPath></defs><g clip-path="url(#89377ba987)"><path fill="#ffffff" d="M 0.582031 0 L 35.417969 0 L 35.417969 29.03125 L 0.582031 29.03125 Z M 0.582031 0 " fill-opacity="1" fill-rule="nonzero"/><path fill="#ffffff" d="M 0.582031 0 L 35.417969 0 L 35.417969 29.03125 L 0.582031 29.03125 Z M 0.582031 0 " fill-opacity="1" fill-rule="nonzero"/></g><g clip-path="url(#754cee9728)"><path fill="#0f3d3e" d="M 1.265625 0.195312 C 0.773438 0.40625 0.597656 1.003906 0.929688 1.335938 C 1.105469 1.511719 1.546875 1.597656 2.355469 1.613281 C 3.371094 1.632812 3.621094 1.703125 4.222656 2.128906 C 5.898438 3.316406 6.605469 5.753906 8.019531 15.261719 C 8.542969 18.761719 8.90625 20.03125 9.542969 20.601562 C 9.742188 20.78125 9.859375 21.105469 9.859375 21.484375 C 9.859375 22.910156 11.113281 24.316406 12.980469 24.992188 L 13.929688 25.335938 C 13.863281 26.328125 13.640625 27.335938 15.054688 28.382812 C 15.753906 28.902344 17.414062 28.957031 18.316406 28.496094 C 18.96875 28.164062 19.839844 27.078125 20.089844 26.289062 C 20.160156 26.0625 20.351562 25.988281 20.839844 25.988281 C 21.378906 25.988281 21.527344 26.058594 21.648438 26.382812 C 21.886719 27 22.847656 28.019531 23.429688 28.261719 C 23.726562 28.386719 24.363281 28.488281 24.855469 28.488281 C 26.375 28.488281 27.363281 27.570312 27.574219 25.972656 C 27.671875 25.210938 27.691406 25.195312 28.371094 25.085938 C 29.351562 24.929688 29.839844 24.566406 29.773438 24.039062 C 29.679688 23.265625 29.367188 23.226562 26.613281 23.628906 C 20.484375 24.519531 16.621094 24.476562 13.566406 23.484375 C 12.808594 23.238281 12.378906 22.976562 11.929688 22.476562 C 11.597656 22.113281 11.351562 21.777344 11.390625 21.738281 C 11.429688 21.703125 12.09375 21.757812 12.855469 21.851562 C 14.976562 22.121094 24.179688 22.132812 25.332031 21.867188 C 26.691406 21.550781 27.695312 20.855469 28.296875 19.808594 C 29.433594 17.820312 32.234375 8.210938 32.414062 5.675781 C 32.5 4.425781 32.492188 4.382812 32.019531 3.902344 C 29.457031 1.308594 9.90625 4.058594 7.566406 3.433594 C 7.351562 3.378906 7.039062 3.046875 6.851562 2.683594 C 6.421875 1.847656 5.523438 0.964844 4.652344 0.515625 C 3.875 0.117188 1.882812 -0.0703125 1.265625 0.195312 Z M 22.402344 12.394531 C 22.042969 12.378906 17.089844 12.214844 16.78125 12.09375 C 16.476562 11.972656 16.296875 10.757812 15.234375 7.386719 C 14.824219 6.074219 14.503906 4.976562 14.53125 4.953125 C 14.683594 4.820312 24.425781 4.277344 24.285156 4.742188 C 24.300781 4.742188 24.378906 4.3125 22.402344 12.394531 Z M 30.6875 5.710938 C 30.664062 6.4375 29.515625 11.332031 29.316406 11.554688 C 29.195312 11.695312 25.296875 12.347656 24.601562 12.347656 C 24.15625 12.347656 24.132812 12.316406 24.238281 11.808594 C 24.351562 11.261719 25.484375 6.457031 26.011719 4.492188 C 30.933594 4.761719 30.722656 4.726562 30.6875 5.707031 Z M 14.832031 11.902344 C 12.109375 11.554688 9.582031 10.972656 9.339844 10.84375 C 8.9375 10.628906 8.710938 8.386719 7.898438 5.21875 C 8.582031 5.199219 11.996094 5.117188 12.464844 5.066406 C 12.796875 5.03125 12.894531 5.210938 13.351562 6.652344 C 13.433594 6.652344 14.828125 11.886719 14.832031 11.902344 Z M 11.554688 13.003906 C 14.8125 13.621094 15.148438 13.394531 15.257812 13.898438 C 15.46875 14.847656 16.339844 19.816406 16.339844 20.074219 C 16.339844 20.351562 16.1875 20.367188 14.414062 20.257812 C 13.351562 20.191406 12.117188 20.027344 11.660156 19.890625 C 10.914062 19.671875 10.792969 19.570312 10.503906 18.917969 C 10.265625 18.386719 9.355469 13.34375 9.355469 12.566406 C 9.355469 12.519531 9.457031 12.527344 9.601562 12.582031 C 9.839844 12.675781 11.570312 13.003906 11.554688 13.003906 Z M 26.453125 19.441406 C 26.039062 19.878906 24.726562 20.328125 23.875 20.328125 C 23.351562 20.328125 23.320312 20.300781 23.324219 19.792969 C 23.332031 18.9375 23.640625 15.171875 23.753906 14.5625 C 23.921875 13.664062 23.910156 14.257812 26.898438 13.777344 C 27.625 13.664062 28.351562 13.554688 28.503906 13.542969 C 28.75 13.519531 28.734375 13.675781 28.359375 14.894531 C 28.414062 14.894531 27.089844 18.769531 26.453125 19.441406 Z M 21.964844 15.261719 C 21.765625 16.582031 21.574219 20.441406 21.574219 20.425781 C 21.417969 20.421875 18.324219 20.386719 18.21875 20.28125 C 18.15625 20.21875 17.007812 14.277344 17.003906 13.976562 C 17 13.832031 21.84375 14.003906 22.003906 14.15625 C 22.042969 14.15625 22.078125 14.515625 21.964844 15.261719 Z M 25.980469 25.828125 C 25.980469 26.265625 25.25 26.984375 24.808594 26.984375 C 24.15625 26.984375 22.929688 26.152344 23.191406 25.890625 C 23.296875 25.785156 24.777344 25.546875 25.519531 25.515625 C 25.882812 25.5 25.980469 25.5625 25.980469 25.824219 Z M 17.929688 26.746094 C 17.402344 27.273438 16.796875 27.414062 16.164062 27.152344 C 15.5625 26.902344 15.277344 26.445312 15.433594 25.96875 C 15.523438 25.679688 15.632812 25.636719 16.042969 25.722656 C 17.292969 25.980469 19.175781 25.488281 17.929688 26.746094 Z M 17.929688 26.746094 " fill-opacity="1" fill-rule="nonzero"/></g><g clip-path="url(#fadb7f6f38)"><path fill="#0f3d3e" d="M 31.621094 20.5 L 31.621094 19 C 31.621094 18.789062 31.679688 18.617188 31.796875 18.488281 C 31.914062 18.351562 32.078125 18.285156 32.296875 18.285156 C 32.515625 18.285156 32.679688 18.351562 32.796875 18.488281 C 32.917969 18.617188 32.976562 18.789062 32.976562 19 L 32.976562 20.5 L 34.488281 20.5 C 34.707031 20.5 34.882812 20.558594 35.007812 20.675781 C 35.140625 20.792969 35.203125 20.953125 35.203125 21.164062 C 35.203125 21.378906 35.140625 21.542969 35.007812 21.660156 C 34.882812 21.78125 34.707031 21.839844 34.488281 21.839844 L 32.976562 21.839844 L 32.976562 23.335938 C 32.976562 23.546875 32.917969 23.71875 32.796875 23.851562 C 32.675781 23.984375 32.511719 24.046875 32.296875 24.046875 C 32.082031 24.046875 31.914062 23.984375 31.796875 23.851562 C 31.679688 23.71875 31.621094 23.546875 31.621094 23.335938 L 31.621094 21.839844 L 30.109375 21.839844 C 29.898438 21.839844 29.722656 21.773438 29.589844 21.648438 C 29.457031 21.515625 29.394531 21.355469 29.394531 21.164062 C 29.394531 20.953125 29.457031 20.792969 29.585938 20.675781 C 29.714844 20.558594 29.890625 20.5 30.109375 20.5 Z M 31.621094 20.5 " fill-opacity="1" fill-rule="nonzero"/></g></svg>