<svg xmlns="http://www.w3.org/2000/svg" xmlns:xlink="http://www.w3.org/1999/xlink" width="48" zoomAndPan="magnify" viewBox="0 0 36 30.000001" height="40" preserveAspectRatio="xMidYMid meet" version="1.0"><defs><clipPath id="55e16dceed"><path d="M 0.582031 0 L 35.417969 0 L 35.417969 29.03125 L 0.582031 29.03125 Z M 0.582031 0 " clip-rule="nonzero"/></clipPath><clipPath id="3ed99d2b0e"><path d="M 2.03125 0.0117188 L 33.96875 0.0117188 L 33.96875 29 L 2.03125 29 Z M 2.03125 0.0117188 " clip-rule="nonzero"/></clipPath></defs><g clip-path="url(#55e16dceed)"><path fill="#ffffff" d="M 0.582031 0 L 35.417969 0 L 35.417969 29.03125 L 0.582031 29.03125 Z M 0.582031 0 " fill-opacity="1" fill-rule="nonzero"/><path fill="#ffffff" d="M 0.582031 0 L 35.417969 0 L 35.417969 29.03125 L 0.582031 29.03125 Z M 0.582031 0 " fill-opacity="1" fill-rule="nonzero"/></g><g clip-path="url(#3ed99d2b0e)"><path fill="#0f3d3e" d="M 2.714844 0.28125 C 2.222656 0.492188 2.046875 1.085938 2.378906 1.421875 C 2.554688 1.59375 3 1.679688 3.804688 1.699219 C 4.820312 1.71875 5.070312 1.785156 5.675781 2.214844 C 7.351562 3.398438 8.054688 5.839844 9.472656 15.34375 C 9.992188 18.847656 10.355469 20.117188 10.996094 20.6875 C 11.195312 20.863281 11.3125 21.191406 11.3125 21.570312 C 11.3125 22.992188 12.5625 24.398438 14.429688 25.074219 L 15.382812 25.417969 C 15.3125 26.410156 15.09375 27.417969 16.503906 28.464844 C 17.203125 28.984375 18.863281 29.042969 19.769531 28.582031 C 20.421875 28.246094 21.289062 27.164062 21.542969 26.371094 C 21.613281 26.148438 21.804688 26.070312 22.292969 26.070312 C 22.832031 26.070312 22.976562 26.144531 23.101562 26.46875 C 23.335938 27.085938 24.300781 28.101562 24.882812 28.347656 C 25.179688 28.472656 25.816406 28.574219 26.308594 28.574219 C 27.828125 28.574219 28.816406 27.65625 29.027344 26.054688 C 29.125 25.292969 29.144531 25.277344 29.824219 25.167969 C 30.804688 25.011719 31.292969 24.648438 31.226562 24.121094 C 31.132812 23.351562 30.820312 23.3125 28.066406 23.710938 C 21.9375 24.601562 18.070312 24.558594 15.019531 23.570312 C 14.257812 23.324219 13.828125 23.058594 13.378906 22.5625 C 13.050781 22.199219 12.800781 21.859375 12.839844 21.824219 C 12.878906 21.789062 13.546875 21.839844 14.304688 21.9375 C 16.425781 22.207031 25.632812 22.21875 26.785156 21.953125 C 28.144531 21.636719 29.148438 20.941406 29.75 19.890625 C 30.886719 17.90625 33.6875 8.296875 33.867188 5.761719 C 33.953125 4.511719 33.945312 4.464844 33.472656 3.988281 C 30.910156 1.390625 11.359375 4.140625 9.015625 3.519531 C 8.804688 3.460938 8.488281 3.132812 8.300781 2.769531 C 7.871094 1.933594 6.972656 1.046875 6.101562 0.597656 C 5.328125 0.199219 3.332031 0.0117188 2.714844 0.28125 Z M 23.851562 12.476562 C 23.496094 12.464844 18.542969 12.300781 18.230469 12.175781 C 17.929688 12.054688 17.746094 10.84375 16.6875 7.472656 C 16.273438 6.15625 15.957031 5.0625 15.984375 5.039062 C 16.132812 4.902344 25.878906 4.363281 25.738281 4.824219 C 25.753906 4.824219 25.828125 4.394531 23.851562 12.476562 Z M 32.140625 5.792969 C 32.117188 6.523438 30.96875 11.417969 30.769531 11.640625 C 30.648438 11.777344 26.75 12.433594 26.054688 12.433594 C 25.605469 12.433594 25.585938 12.398438 25.691406 11.894531 C 25.800781 11.34375 26.9375 6.539062 27.464844 4.574219 C 32.386719 4.847656 32.175781 4.8125 32.140625 5.792969 Z M 16.285156 11.984375 C 13.5625 11.640625 11.03125 11.054688 10.789062 10.925781 C 10.390625 10.710938 10.160156 8.472656 9.347656 5.300781 C 10.035156 5.28125 13.445312 5.199219 13.917969 5.152344 C 14.246094 5.117188 14.347656 5.292969 14.804688 6.734375 C 14.886719 6.734375 16.28125 11.96875 16.285156 11.984375 Z M 13.007812 13.085938 C 16.265625 13.707031 16.597656 13.476562 16.710938 13.980469 C 16.921875 14.929688 17.789062 19.902344 17.789062 20.160156 C 17.789062 20.4375 17.640625 20.449219 15.867188 20.339844 C 14.804688 20.277344 13.570312 20.113281 13.109375 19.976562 C 12.367188 19.757812 12.246094 19.65625 11.953125 19.003906 C 11.71875 18.472656 10.804688 13.425781 10.804688 12.648438 C 10.804688 12.605469 10.910156 12.609375 11.050781 12.664062 C 11.292969 12.761719 13.023438 13.085938 13.007812 13.085938 Z M 27.90625 19.527344 C 27.492188 19.960938 26.179688 20.414062 25.324219 20.414062 C 24.804688 20.414062 24.773438 20.382812 24.777344 19.875 C 24.785156 19.019531 25.09375 15.253906 25.207031 14.648438 C 25.375 13.75 25.363281 14.34375 28.351562 13.863281 C 29.078125 13.746094 29.804688 13.640625 29.957031 13.625 C 30.203125 13.605469 30.1875 13.761719 29.8125 14.980469 C 29.867188 14.980469 28.539062 18.851562 27.90625 19.527344 Z M 23.417969 15.34375 C 23.21875 16.664062 23.027344 20.527344 23.027344 20.507812 C 22.867188 20.507812 19.773438 20.46875 19.671875 20.367188 C 19.605469 20.300781 18.460938 14.363281 18.453125 14.0625 C 18.449219 13.914062 23.296875 14.089844 23.453125 14.242188 C 23.492188 14.242188 23.53125 14.601562 23.417969 15.34375 Z M 27.433594 25.910156 C 27.433594 26.347656 26.703125 27.066406 26.261719 27.066406 C 25.609375 27.066406 24.382812 26.234375 24.644531 25.972656 C 24.75 25.871094 26.226562 25.632812 26.972656 25.597656 C 27.335938 25.582031 27.433594 25.648438 27.433594 25.910156 Z M 19.378906 26.828125 C 18.855469 27.359375 18.246094 27.5 17.613281 27.238281 C 17.011719 26.988281 16.730469 26.527344 16.882812 26.054688 C 16.976562 25.765625 17.082031 25.722656 17.496094 25.808594 C 18.746094 26.066406 20.625 25.570312 19.378906 26.828125 Z M 19.378906 26.828125 " fill-opacity="1" fill-rule="nonzero"/></g></svg>