<svg xmlns="http://www.w3.org/2000/svg" xmlns:xlink="http://www.w3.org/1999/xlink" width="48" zoomAndPan="magnify" viewBox="0 0 36 30.000001" height="40" preserveAspectRatio="xMidYMid meet" version="1.0"><defs><clipPath id="8f45fc5cb1"><path d="M 3.714844 0 L 32 0 L 32 28.75 L 3.714844 28.75 Z M 3.714844 0 " clip-rule="nonzero"/></clipPath></defs><g clip-path="url(#8f45fc5cb1)"><path fill="#0f3d3e" d="M 28.601562 15.640625 C 28.65625 15.179688 28.699219 14.710938 28.699219 14.234375 C 28.699219 13.757812 28.65625 13.289062 28.601562 12.828125 L 31.652344 10.4375 C 31.929688 10.21875 32.007812 9.828125 31.828125 9.511719 L 28.9375 4.507812 C 28.757812 4.199219 28.382812 4.070312 28.058594 4.199219 L 24.460938 5.648438 C 23.71875 5.078125 22.902344 4.59375 22.019531 4.226562 L 21.480469 0.402344 C 21.414062 0.0625 21.117188 -0.207031 20.757812 -0.207031 L 14.980469 -0.207031 C 14.621094 -0.207031 14.324219 0.0625 14.265625 0.402344 L 13.722656 4.226562 C 12.84375 4.59375 12.027344 5.070312 11.285156 5.648438 L 7.6875 4.199219 C 7.363281 4.074219 6.988281 4.199219 6.804688 4.507812 L 3.917969 9.511719 C 3.738281 9.824219 3.816406 10.210938 4.089844 10.4375 L 7.140625 12.828125 C 7.082031 13.289062 7.039062 13.757812 7.039062 14.234375 C 7.039062 14.710938 7.082031 15.179688 7.140625 15.640625 L 4.089844 18.03125 C 3.816406 18.25 3.738281 18.636719 3.917969 18.957031 L 6.804688 23.960938 C 6.988281 24.269531 7.363281 24.398438 7.6875 24.269531 L 11.285156 22.820312 C 12.027344 23.390625 12.84375 23.871094 13.722656 24.242188 L 14.265625 28.066406 C 14.324219 28.40625 14.621094 28.675781 14.980469 28.675781 L 20.757812 28.675781 C 21.117188 28.675781 21.414062 28.40625 21.472656 28.066406 L 22.015625 24.242188 C 22.894531 23.871094 23.710938 23.394531 24.453125 22.820312 L 28.050781 24.269531 C 28.375 24.390625 28.75 24.269531 28.933594 23.960938 L 31.820312 18.957031 C 32 18.644531 31.921875 18.253906 31.648438 18.03125 Z M 17.871094 19.289062 C 15.074219 19.289062 12.816406 17.027344 12.816406 14.234375 C 12.816406 11.441406 15.074219 9.179688 17.871094 9.179688 C 20.664062 9.179688 22.925781 11.441406 22.925781 14.234375 C 22.925781 17.027344 20.664062 19.289062 17.871094 19.289062 Z M 17.871094 19.289062 " fill-opacity="1" fill-rule="nonzero"/></g></svg>