<svg xmlns="http://www.w3.org/2000/svg" xmlns:xlink="http://www.w3.org/1999/xlink" width="48" zoomAndPan="magnify" viewBox="0 0 36 30.000001" height="40" preserveAspectRatio="xMidYMid meet" version="1.0"><defs><clipPath id="7edcea1b70"><path d="M 0.582031 0 L 35.417969 0 L 35.417969 29.03125 L 0.582031 29.03125 Z M 0.582031 0 " clip-rule="nonzero"/></clipPath><clipPath id="40e3827efb"><path d="M 22 1.699219 L 25 1.699219 L 25 7 L 22 7 Z M 22 1.699219 " clip-rule="nonzero"/></clipPath><clipPath id="4a697a7568"><path d="M 0.582031 7 L 29 7 L 29 27.101562 L 0.582031 27.101562 Z M 0.582031 7 " clip-rule="nonzero"/></clipPath><clipPath id="2baa8a5ee7"><path d="M 30 10 L 35.417969 10 L 35.417969 13 L 30 13 Z M 30 10 " clip-rule="nonzero"/></clipPath></defs><g clip-path="url(#7edcea1b70)"><path fill="#ffffff" d="M 0.582031 0 L 35.417969 0 L 35.417969 101.613281 L 0.582031 101.613281 Z M 0.582031 0 " fill-opacity="1" fill-rule="nonzero"/><path fill="#ffffff" d="M 0.582031 0 L 35.417969 0 L 35.417969 29.03125 L 0.582031 29.03125 Z M 0.582031 0 " fill-opacity="1" fill-rule="nonzero"/><path fill="#ffffff" d="M 0.582031 0 L 35.417969 0 L 35.417969 29.03125 L 0.582031 29.03125 Z M 0.582031 0 " fill-opacity="1" fill-rule="nonzero"/></g><g clip-path="url(#40e3827efb)"><path fill="#0f3d3e" d="M 23.726562 1.96875 C 23.429688 2.324219 22.449219 5.058594 22.355469 5.796875 C 22.25 6.59375 22.488281 6.9375 23.089844 6.855469 C 23.390625 6.8125 23.566406 6.492188 24.179688 4.867188 C 24.953125 2.824219 25.066406 2.246094 24.753906 1.9375 C 24.515625 1.699219 23.933594 1.714844 23.726562 1.96875 Z M 23.726562 1.96875 " fill-opacity="1" fill-rule="nonzero"/></g><path fill="#0f3d3e" d="M 29.117188 5.367188 C 27.832031 6.730469 27.601562 7.320312 28.230469 7.652344 C 28.660156 7.878906 28.90625 7.71875 30.222656 6.347656 C 31.339844 5.179688 31.566406 4.679688 31.160156 4.273438 C 30.75 3.871094 30.316406 4.097656 29.117188 5.367188 Z M 29.117188 5.367188 " fill-opacity="1" fill-rule="nonzero"/><g clip-path="url(#4a697a7568)"><path fill="#0f3d3e" d="M 6.542969 7.4375 C 3.941406 7.828125 2.707031 8.515625 1.933594 9.996094 C 1.1875 11.425781 0.582031 15.914062 0.582031 20.007812 C 0.582031 23.910156 0.742188 24.71875 1.699219 25.667969 C 2.730469 26.6875 3.597656 26.902344 7.015625 27.011719 C 9.988281 27.105469 19.578125 26.835938 22.453125 26.578125 C 27.882812 26.09375 28.625 25.183594 28.800781 18.839844 C 28.863281 16.59375 28.820312 15.246094 28.632812 13.636719 C 28.191406 9.835938 27.726562 8.746094 26.253906 8.03125 L 25.378906 7.601562 C 10.664062 7.480469 13.625 7.4375 6.542969 7.4375 Z M 24.324219 9.347656 C 24.324219 9.65625 15.796875 16.617188 14.785156 17.128906 C 13.953125 17.550781 13.402344 17.503906 12.527344 16.929688 C 11.699219 16.390625 4.78125 9.507812 4.921875 9.359375 C 5.066406 9.214844 6.289062 8.925781 6.542969 8.984375 C 6.898438 9.0625 24.324219 9.199219 24.324219 9.347656 Z M 26.410156 10.558594 C 27.136719 12.738281 27.492188 18.542969 27.074219 21.265625 C 26.585938 24.417969 26.046875 24.089844 26.046875 23.75 C 26.046875 23.160156 23.75 19.519531 21.53125 16.59375 L 20.296875 14.964844 L 21.722656 13.8125 C 26.21875 10.179688 25.816406 9.84375 26.0625 9.828125 C 26.152344 9.820312 26.425781 10.558594 26.410156 10.558594 Z M 9.082031 16.046875 C 8.402344 16.867188 8.765625 16.472656 2.410156 23.527344 C 1.929688 21.371094 2.300781 13.589844 3.199219 11.015625 C 3.507812 10.121094 3.167969 9.878906 6.585938 13.441406 Z M 19.96875 17.007812 C 23.050781 21.160156 24.820312 24.601562 24.753906 24.660156 C 24.195312 25.121094 3.421875 25.925781 3.421875 24.933594 C 3.421875 24.792969 4.28125 23.816406 10.152344 17.125 C 13.105469 19.421875 13.902344 20.152344 17.699219 17.0625 C 18.382812 16.503906 19.015625 16.046875 19.101562 16.046875 C 19.234375 16.046875 19.988281 17.007812 19.96875 17.007812 Z M 19.96875 17.007812 " fill-opacity="1" fill-rule="nonzero"/></g><g clip-path="url(#2baa8a5ee7)"><path fill="#0f3d3e" d="M 30.460938 10.90625 C 30.304688 10.945312 30.113281 11.566406 30.195312 11.773438 C 30.378906 12.238281 30.90625 12.28125 32.675781 11.984375 C 35.023438 11.585938 35.070312 11.570312 35.269531 11.148438 C 35.414062 10.839844 35.398438 10.707031 35.171875 10.453125 C 34.820312 10.0625 34.5625 10.070312 32.289062 10.53125 Z M 30.460938 10.90625 " fill-opacity="1" fill-rule="nonzero"/></g></svg>