<svg xmlns="http://www.w3.org/2000/svg" xmlns:xlink="http://www.w3.org/1999/xlink" width="48" zoomAndPan="magnify" viewBox="0 0 36 30.000001" height="40" preserveAspectRatio="xMidYMid meet" version="1.0"><defs><clipPath id="9c2cd4560b"><path d="M 0.582031 3 L 35.417969 3 L 35.417969 26.703125 L 0.582031 26.703125 Z M 0.582031 3 " clip-rule="nonzero"/></clipPath><clipPath id="288d0211e6"><path d="M 2 2.023438 L 34 2.023438 L 34 18 L 2 18 Z M 2 2.023438 " clip-rule="nonzero"/></clipPath></defs><g clip-path="url(#9c2cd4560b)"><path fill="#0f3d3e" d="M 18.664062 19.9375 C 18.429688 20.167969 18.113281 20.296875 17.785156 20.296875 C 17.453125 20.296875 17.136719 20.167969 16.90625 19.9375 L 0.703125 3.929688 C 0.652344 4.125 0.582031 4.316406 0.582031 4.53125 L 0.582031 24.195312 C 0.582031 25.550781 1.695312 26.652344 3.070312 26.652344 L 32.929688 26.652344 C 34.300781 26.652344 35.417969 25.550781 35.417969 24.195312 L 35.417969 4.53125 C 35.417969 4.191406 35.347656 3.871094 35.222656 3.582031 Z M 18.664062 19.9375 " fill-opacity="1" fill-rule="nonzero"/></g><g clip-path="url(#288d0211e6)"><path fill="#0f3d3e" d="M 17.785156 17.328125 L 33.179688 2.121094 C 33.09375 2.113281 33.019531 2.074219 32.929688 2.074219 L 3.070312 2.074219 C 2.851562 2.074219 2.660156 2.140625 2.460938 2.191406 Z M 17.785156 17.328125 " fill-opacity="1" fill-rule="nonzero"/></g></svg>