<svg xmlns="http://www.w3.org/2000/svg" xmlns:xlink="http://www.w3.org/1999/xlink" width="48" zoomAndPan="magnify" viewBox="0 0 36 30.000001" height="40" preserveAspectRatio="xMidYMid meet" version="1.0"><defs><clipPath id="1016bbff55"><path d="M 24 1.699219 L 27 1.699219 L 27 7 L 24 7 Z M 24 1.699219 " clip-rule="nonzero"/></clipPath><clipPath id="47bac4c061"><path d="M 5.328125 6 L 31 6 L 31 24.199219 L 5.328125 24.199219 Z M 5.328125 6 " clip-rule="nonzero"/></clipPath><clipPath id="b8c353bb6b"><path d="M 31 9 L 35.417969 9 L 35.417969 11 L 31 11 Z M 31 9 " clip-rule="nonzero"/></clipPath></defs><g clip-path="url(#1016bbff55)"><path fill="#0f3d3e" d="M 25.578125 1.9375 C 25.320312 2.25 24.464844 4.675781 24.378906 5.328125 C 24.289062 6.035156 24.5 6.339844 25.023438 6.265625 C 25.285156 6.226562 25.441406 5.945312 25.976562 4.503906 C 26.652344 2.695312 26.75 2.183594 26.480469 1.910156 C 26.269531 1.699219 25.761719 1.714844 25.578125 1.9375 Z M 25.578125 1.9375 " fill-opacity="1" fill-rule="nonzero"/></g><path fill="#0f3d3e" d="M 30.296875 4.949219 C 29.171875 6.152344 28.972656 6.675781 29.523438 6.972656 C 29.898438 7.175781 30.113281 7.03125 31.261719 5.816406 C 32.242188 4.78125 32.4375 4.339844 32.082031 3.980469 C 31.726562 3.621094 31.347656 3.824219 30.296875 4.949219 Z M 30.296875 4.949219 " fill-opacity="1" fill-rule="nonzero"/><g clip-path="url(#47bac4c061)"><path fill="#0f3d3e" d="M 10.542969 6.78125 C 8.269531 7.128906 7.191406 7.734375 6.511719 9.050781 C 5.859375 10.3125 5.332031 14.289062 5.332031 17.914062 C 5.332031 21.375 5.472656 22.089844 6.304688 22.925781 C 7.207031 23.832031 7.96875 24.023438 10.960938 24.121094 C 13.558594 24.203125 21.949219 23.960938 24.464844 23.734375 C 29.214844 23.304688 29.867188 22.5 30.019531 16.882812 C 30.074219 14.890625 30.039062 13.699219 29.875 12.273438 C 29.484375 8.90625 29.082031 7.941406 27.792969 7.304688 L 27.027344 6.929688 C 14.152344 6.820312 16.742188 6.78125 10.542969 6.78125 Z M 26.101562 8.472656 C 26.101562 8.75 18.644531 14.910156 17.757812 15.367188 C 17.03125 15.738281 16.550781 15.695312 15.78125 15.191406 C 15.054688 14.710938 9.003906 8.613281 9.128906 8.484375 C 9.253906 8.355469 10.324219 8.101562 10.542969 8.152344 C 10.855469 8.222656 26.105469 8.34375 26.105469 8.472656 Z M 27.929688 9.546875 C 28.5625 11.476562 28.878906 16.621094 28.507812 19.027344 C 28.082031 21.820312 27.609375 21.53125 27.609375 21.230469 C 27.609375 20.707031 25.601562 17.484375 23.660156 14.890625 L 22.582031 13.449219 L 23.828125 12.429688 C 27.761719 9.210938 27.410156 8.914062 27.625 8.898438 C 27.703125 8.890625 27.945312 9.546875 27.929688 9.546875 Z M 12.765625 14.40625 C 12.171875 15.132812 12.488281 14.785156 6.929688 21.03125 C 6.507812 19.125 6.835938 12.230469 7.617188 9.953125 C 7.890625 9.160156 7.59375 8.945312 10.582031 12.101562 Z M 22.292969 15.257812 C 24.988281 18.9375 26.539062 21.984375 26.480469 22.035156 C 25.992188 22.445312 7.8125 23.15625 7.8125 22.277344 C 7.8125 22.15625 8.566406 21.289062 13.703125 15.363281 C 16.285156 17.398438 16.984375 18.042969 20.304688 15.304688 C 20.90625 14.8125 21.460938 14.40625 21.535156 14.40625 C 21.652344 14.40625 22.308594 15.257812 22.292969 15.257812 Z M 22.292969 15.257812 " fill-opacity="1" fill-rule="nonzero"/></g><g clip-path="url(#b8c353bb6b)"><path fill="#0f3d3e" d="M 31.472656 9.855469 C 31.335938 9.890625 31.171875 10.4375 31.242188 10.621094 C 31.402344 11.035156 31.863281 11.074219 33.410156 10.808594 C 35.464844 10.457031 35.507812 10.441406 35.679688 10.070312 C 35.808594 9.792969 35.792969 9.675781 35.59375 9.453125 C 35.285156 9.109375 35.0625 9.113281 33.070312 9.523438 Z M 31.472656 9.855469 " fill-opacity="1" fill-rule="nonzero"/></g></svg>