<svg xmlns="http://www.w3.org/2000/svg" xmlns:xlink="http://www.w3.org/1999/xlink" width="48" zoomAndPan="magnify" viewBox="0 0 36 30.000001" height="40" preserveAspectRatio="xMidYMid meet" version="1.0"><defs><clipPath id="a28995c702"><path d="M 3.484375 0 L 32.515625 0 L 32.515625 29.03125 L 3.484375 29.03125 Z M 3.484375 0 " clip-rule="nonzero"/></clipPath></defs><g clip-path="url(#a28995c702)"><path fill="#0f3d3e" d="M 32.515625 14.515625 C 32.515625 15.46875 32.421875 16.414062 32.238281 17.347656 C 32.050781 18.28125 31.777344 19.191406 31.410156 20.070312 C 31.046875 20.953125 30.597656 21.789062 30.070312 22.582031 C 29.539062 23.375 28.9375 24.105469 28.265625 24.78125 C 27.589844 25.453125 26.855469 26.054688 26.066406 26.585938 C 25.273438 27.117188 24.4375 27.5625 23.554688 27.925781 C 22.675781 28.292969 21.765625 28.566406 20.832031 28.753906 C 19.898438 28.9375 18.953125 29.03125 18 29.03125 C 17.046875 29.03125 16.101562 28.9375 15.167969 28.753906 C 14.234375 28.566406 13.324219 28.292969 12.445312 27.925781 C 11.5625 27.5625 10.726562 27.117188 9.933594 26.585938 C 9.144531 26.054688 8.410156 25.453125 7.734375 24.78125 C 7.0625 24.105469 6.460938 23.375 5.929688 22.582031 C 5.402344 21.789062 4.953125 20.953125 4.589844 20.070312 C 4.222656 19.191406 3.949219 18.28125 3.761719 17.347656 C 3.578125 16.414062 3.484375 15.46875 3.484375 14.515625 C 3.484375 13.5625 3.578125 12.617188 3.761719 11.683594 C 3.949219 10.75 4.222656 9.839844 4.589844 8.960938 C 4.953125 8.082031 5.402344 7.242188 5.929688 6.453125 C 6.460938 5.660156 7.0625 4.925781 7.734375 4.25 C 8.410156 3.578125 9.144531 2.976562 9.933594 2.445312 C 10.726562 1.917969 11.5625 1.46875 12.445312 1.105469 C 13.324219 0.738281 14.234375 0.464844 15.167969 0.277344 C 16.101562 0.09375 17.046875 0 18 0 C 18.953125 0 19.898438 0.09375 20.832031 0.277344 C 21.765625 0.464844 22.675781 0.738281 23.554688 1.105469 C 24.4375 1.46875 25.273438 1.917969 26.066406 2.445312 C 26.855469 2.976562 27.589844 3.578125 28.265625 4.25 C 28.9375 4.925781 29.539062 5.660156 30.070312 6.453125 C 30.597656 7.242188 31.046875 8.082031 31.410156 8.960938 C 31.777344 9.839844 32.050781 10.75 32.238281 11.683594 C 32.421875 12.617188 32.515625 13.5625 32.515625 14.515625 Z M 32.515625 14.515625 " fill-opacity="1" fill-rule="nonzero"/></g><path fill="#ffffff" d="M 29.289062 14.515625 C 29.289062 15.257812 29.21875 15.992188 29.074219 16.71875 C 28.929688 17.445312 28.714844 18.152344 28.429688 18.835938 C 28.148438 19.523438 27.800781 20.171875 27.386719 20.789062 C 26.976562 21.40625 26.507812 21.976562 25.984375 22.5 C 25.460938 23.023438 24.890625 23.492188 24.273438 23.902344 C 23.65625 24.316406 23.003906 24.664062 22.320312 24.945312 C 21.636719 25.230469 20.929688 25.445312 20.203125 25.589844 C 19.476562 25.734375 18.742188 25.804688 18 25.804688 C 17.257812 25.804688 16.523438 25.734375 15.796875 25.589844 C 15.070312 25.445312 14.363281 25.230469 13.679688 24.945312 C 12.996094 24.664062 12.34375 24.316406 11.726562 23.902344 C 11.109375 23.492188 10.539062 23.023438 10.015625 22.5 C 9.492188 21.976562 9.023438 21.40625 8.613281 20.789062 C 8.199219 20.171875 7.851562 19.523438 7.570312 18.835938 C 7.285156 18.152344 7.070312 17.445312 6.925781 16.71875 C 6.78125 15.992188 6.710938 15.257812 6.710938 14.515625 C 6.710938 13.773438 6.78125 13.039062 6.925781 12.3125 C 7.070312 11.585938 7.285156 10.878906 7.570312 10.195312 C 7.851562 9.511719 8.199219 8.859375 8.613281 8.242188 C 9.023438 7.628906 9.492188 7.058594 10.015625 6.53125 C 10.539062 6.007812 11.109375 5.539062 11.726562 5.128906 C 12.34375 4.714844 12.996094 4.367188 13.679688 4.085938 C 14.363281 3.800781 15.070312 3.585938 15.796875 3.441406 C 16.523438 3.296875 17.257812 3.226562 18 3.226562 C 18.742188 3.226562 19.476562 3.296875 20.203125 3.441406 C 20.929688 3.585938 21.636719 3.800781 22.320312 4.085938 C 23.003906 4.367188 23.65625 4.714844 24.273438 5.128906 C 24.890625 5.539062 25.460938 6.007812 25.984375 6.53125 C 26.507812 7.058594 26.976562 7.628906 27.386719 8.242188 C 27.800781 8.859375 28.148438 9.511719 28.429688 10.195312 C 28.714844 10.878906 28.929688 11.585938 29.074219 12.3125 C 29.21875 13.039062 29.289062 13.773438 29.289062 14.515625 Z M 29.289062 14.515625 " fill-opacity="1" fill-rule="nonzero"/><path fill="#0f3d3e" d="M 18.804688 14.515625 C 18.804688 14.960938 18.445312 15.324219 18 15.324219 C 17.554688 15.324219 17.195312 14.960938 17.195312 14.515625 L 17.195312 5.644531 C 17.195312 5.199219 17.554688 4.839844 18 4.839844 C 18.445312 4.839844 18.804688 5.199219 18.804688 5.644531 Z M 18.804688 14.515625 " fill-opacity="1" fill-rule="nonzero"/><path fill="#0f3d3e" d="M 24.984375 18.546875 C 24.761719 18.933594 24.269531 19.066406 23.882812 18.84375 L 17.597656 15.214844 C 17.210938 14.992188 17.078125 14.5 17.300781 14.113281 C 17.523438 13.726562 18.015625 13.59375 18.402344 13.820312 L 24.691406 17.449219 C 25.074219 17.671875 25.207031 18.164062 24.984375 18.546875 Z M 24.984375 18.546875 " fill-opacity="1" fill-rule="nonzero"/></svg>