<svg xmlns="http://www.w3.org/2000/svg" xmlns:xlink="http://www.w3.org/1999/xlink" width="48" zoomAndPan="magnify" viewBox="0 0 36 30.000001" height="40" preserveAspectRatio="xMidYMid meet" version="1.0"><defs><clipPath id="c9534d05c2"><path d="M 3.484375 0 L 32.515625 0 L 32.515625 29 L 3.484375 29 Z M 3.484375 0 " clip-rule="nonzero"/></clipPath></defs><g clip-path="url(#c9534d05c2)"><path fill="#0f3d3e" d="M 11.179688 28.96875 L 24.878906 28.96875 C 25.386719 28.964844 25.886719 28.90625 26.382812 28.800781 C 26.878906 28.695312 27.359375 28.542969 27.824219 28.34375 C 28.289062 28.144531 28.730469 27.902344 29.148438 27.617188 C 29.566406 27.332031 29.953125 27.007812 30.304688 26.644531 C 30.660156 26.28125 30.976562 25.890625 31.253906 25.464844 C 31.53125 25.042969 31.761719 24.597656 31.953125 24.128906 C 32.140625 23.65625 32.285156 23.175781 32.378906 22.675781 C 32.472656 22.179688 32.519531 21.679688 32.515625 21.171875 L 32.515625 7.796875 C 32.519531 7.289062 32.472656 6.789062 32.378906 6.292969 C 32.285156 5.792969 32.140625 5.3125 31.953125 4.839844 C 31.761719 4.371094 31.53125 3.925781 31.253906 3.5 C 30.976562 3.078125 30.660156 2.683594 30.304688 2.324219 C 29.953125 1.960938 29.566406 1.636719 29.148438 1.351562 C 28.730469 1.066406 28.289062 0.824219 27.824219 0.625 C 27.359375 0.425781 26.878906 0.273438 26.382812 0.167969 C 25.886719 0.0625 25.386719 0.00390625 24.878906 0 L 11.179688 0 C 10.671875 0.00390625 10.171875 0.0625 9.675781 0.167969 C 9.183594 0.273438 8.703125 0.425781 8.238281 0.625 C 7.773438 0.824219 7.332031 1.066406 6.914062 1.351562 C 6.496094 1.636719 6.109375 1.960938 5.753906 2.324219 C 5.402344 2.683594 5.085938 3.078125 4.808594 3.5 C 4.53125 3.925781 4.296875 4.371094 4.109375 4.839844 C 3.917969 5.3125 3.777344 5.792969 3.679688 6.292969 C 3.585938 6.789062 3.539062 7.289062 3.542969 7.796875 L 3.542969 21.171875 C 3.539062 21.679688 3.585938 22.179688 3.679688 22.675781 C 3.777344 23.175781 3.917969 23.65625 4.109375 24.128906 C 4.296875 24.597656 4.53125 25.042969 4.808594 25.464844 C 5.085938 25.890625 5.402344 26.28125 5.753906 26.644531 C 6.109375 27.007812 6.496094 27.332031 6.914062 27.617188 C 7.332031 27.902344 7.773438 28.144531 8.238281 28.34375 C 8.703125 28.542969 9.183594 28.695312 9.675781 28.800781 C 10.171875 28.90625 10.671875 28.964844 11.179688 28.96875 Z M 26.480469 4.828125 C 26.722656 4.820312 26.953125 4.863281 27.179688 4.953125 C 27.402344 5.039062 27.601562 5.167969 27.773438 5.335938 C 27.949219 5.503906 28.082031 5.699219 28.179688 5.917969 C 28.273438 6.140625 28.324219 6.371094 28.328125 6.613281 C 28.332031 6.855469 28.289062 7.085938 28.199219 7.308594 C 28.109375 7.535156 27.980469 7.734375 27.808594 7.90625 C 27.640625 8.078125 27.445312 8.210938 27.222656 8.304688 C 27 8.398438 26.769531 8.445312 26.527344 8.449219 C 26.289062 8.449219 26.054688 8.40625 25.832031 8.3125 C 25.609375 8.222656 25.410156 8.09375 25.242188 7.921875 C 25.070312 7.753906 24.9375 7.554688 24.84375 7.332031 C 24.753906 7.109375 24.707031 6.878906 24.707031 6.636719 C 24.707031 6.402344 24.75 6.171875 24.839844 5.953125 C 24.929688 5.734375 25.058594 5.539062 25.222656 5.371094 C 25.390625 5.199219 25.582031 5.070312 25.796875 4.976562 C 26.015625 4.882812 26.242188 4.832031 26.480469 4.828125 Z M 18.03125 7.242188 C 18.507812 7.230469 18.980469 7.269531 19.453125 7.351562 C 19.921875 7.4375 20.378906 7.566406 20.824219 7.738281 C 21.269531 7.914062 21.691406 8.128906 22.09375 8.386719 C 22.496094 8.644531 22.871094 8.941406 23.210938 9.273438 C 23.554688 9.605469 23.863281 9.96875 24.136719 10.359375 C 24.40625 10.753906 24.640625 11.167969 24.828125 11.605469 C 25.019531 12.042969 25.164062 12.496094 25.261719 12.964844 C 25.363281 13.429688 25.417969 13.902344 25.421875 14.382812 C 25.429688 14.859375 25.390625 15.332031 25.304688 15.800781 C 25.214844 16.273438 25.082031 16.730469 24.90625 17.171875 C 24.730469 17.617188 24.507812 18.039062 24.25 18.4375 C 23.988281 18.839844 23.691406 19.207031 23.355469 19.550781 C 23.023438 19.890625 22.65625 20.195312 22.261719 20.464844 C 21.867188 20.734375 21.453125 20.964844 21.011719 21.148438 C 20.570312 21.335938 20.117188 21.476562 19.652344 21.574219 C 19.183594 21.671875 18.710938 21.722656 18.234375 21.726562 C 17.753906 21.730469 17.28125 21.683594 16.8125 21.59375 C 16.34375 21.503906 15.886719 21.371094 15.445312 21.1875 C 15.003906 21.007812 14.582031 20.785156 14.183594 20.523438 C 13.785156 20.257812 13.417969 19.960938 13.078125 19.621094 C 12.738281 19.285156 12.4375 18.917969 12.171875 18.523438 C 11.902344 18.128906 11.679688 17.707031 11.496094 17.265625 C 11.3125 16.828125 11.171875 16.371094 11.078125 15.902344 C 10.984375 15.433594 10.9375 14.960938 10.9375 14.484375 C 10.933594 14.011719 10.972656 13.546875 11.0625 13.085938 C 11.148438 12.621094 11.28125 12.171875 11.457031 11.734375 C 11.632812 11.300781 11.847656 10.882812 12.105469 10.488281 C 12.363281 10.097656 12.65625 9.730469 12.984375 9.394531 C 13.3125 9.058594 13.671875 8.757812 14.0625 8.492188 C 14.449219 8.226562 14.859375 8 15.292969 7.816406 C 15.726562 7.632812 16.171875 7.492188 16.632812 7.394531 C 17.09375 7.296875 17.558594 7.246094 18.03125 7.242188 Z M 18.03125 7.242188 " fill-opacity="1" fill-rule="nonzero"/></g></svg>