<svg xmlns="http://www.w3.org/2000/svg" xmlns:xlink="http://www.w3.org/1999/xlink" width="48" zoomAndPan="magnify" viewBox="0 0 36 30.000001" height="40" preserveAspectRatio="xMidYMid meet" version="1.0"><defs><clipPath id="e8a6334060"><path d="M 3.597656 0 L 32.628906 0 L 32.628906 29.03125 L 3.597656 29.03125 Z M 3.597656 0 " clip-rule="nonzero"/></clipPath></defs><g clip-path="url(#e8a6334060)"><path fill="#0f3d3e" d="M 16.5 1.613281 C 16.5 1.613281 16.5 0 18.113281 0 C 19.726562 0 19.726562 1.613281 19.726562 1.613281 L 19.726562 3.226562 C 19.726562 3.226562 19.726562 4.839844 18.113281 4.839844 C 16.5 4.839844 16.5 3.226562 16.5 3.226562 Z M 31.015625 12.902344 C 31.015625 12.902344 32.628906 12.902344 32.628906 14.515625 C 32.628906 16.128906 31.015625 16.128906 31.015625 16.128906 L 29.402344 16.128906 C 29.402344 16.128906 27.789062 16.128906 27.789062 14.515625 C 27.789062 12.902344 29.402344 12.902344 29.402344 12.902344 Z M 6.824219 12.902344 C 6.824219 12.902344 8.4375 12.902344 8.4375 14.515625 C 8.4375 16.128906 6.824219 16.128906 6.824219 16.128906 L 5.210938 16.128906 C 5.210938 16.128906 3.597656 16.128906 3.597656 14.515625 C 3.597656 12.902344 5.210938 12.902344 5.210938 12.902344 Z M 10.953125 5.882812 C 10.953125 5.882812 12.09375 7.023438 10.953125 8.160156 C 9.8125 9.300781 8.671875 8.160156 8.671875 8.160156 L 7.53125 7.023438 C 7.53125 7.023438 6.390625 5.882812 7.53125 4.742188 C 8.671875 3.601562 9.8125 4.742188 9.8125 4.742188 Z M 27.886719 22.816406 C 27.886719 22.816406 29.027344 23.957031 27.886719 25.097656 C 26.746094 26.238281 25.609375 25.097656 25.609375 25.097656 L 24.46875 23.957031 C 24.46875 23.957031 23.328125 22.816406 24.46875 21.675781 C 25.609375 20.535156 26.746094 21.675781 26.746094 21.675781 Z M 27.554688 8.160156 C 27.554688 8.160156 26.414062 9.300781 25.273438 8.160156 C 24.132812 7.023438 25.273438 5.882812 25.273438 5.882812 L 26.414062 4.742188 C 26.414062 4.742188 27.554688 3.601562 28.695312 4.742188 C 29.835938 5.882812 28.695312 7.023438 28.695312 7.023438 Z M 10.621094 25.097656 C 10.621094 25.097656 9.480469 26.238281 8.339844 25.097656 C 7.199219 23.957031 8.339844 22.816406 8.339844 22.816406 L 9.480469 21.675781 C 9.480469 21.675781 10.621094 20.535156 11.761719 21.675781 C 12.898438 22.816406 11.761719 23.957031 11.761719 23.957031 Z M 16.5 25.804688 C 16.5 25.804688 16.5 24.195312 18.113281 24.195312 C 19.726562 24.195312 19.726562 25.804688 19.726562 25.804688 L 19.726562 27.417969 C 19.726562 27.417969 19.726562 29.03125 18.113281 29.03125 C 16.5 29.03125 16.5 27.417969 16.5 27.417969 Z M 16.5 25.804688 " fill-opacity="1" fill-rule="nonzero"/></g><path fill="#0f3d3e" d="M 26.179688 14.515625 C 26.179688 15.046875 26.125 15.570312 26.023438 16.089844 C 25.917969 16.609375 25.765625 17.113281 25.5625 17.601562 C 25.359375 18.089844 25.113281 18.554688 24.820312 18.996094 C 24.523438 19.4375 24.191406 19.84375 23.816406 20.21875 C 23.441406 20.59375 23.035156 20.925781 22.59375 21.222656 C 22.152344 21.515625 21.6875 21.765625 21.199219 21.964844 C 20.710938 22.167969 20.207031 22.324219 19.6875 22.425781 C 19.167969 22.527344 18.644531 22.582031 18.113281 22.582031 C 17.582031 22.582031 17.058594 22.527344 16.539062 22.425781 C 16.019531 22.324219 15.515625 22.167969 15.027344 21.964844 C 14.539062 21.765625 14.074219 21.515625 13.632812 21.222656 C 13.191406 20.925781 12.785156 20.59375 12.410156 20.21875 C 12.035156 19.84375 11.703125 19.4375 11.40625 18.996094 C 11.113281 18.554688 10.863281 18.089844 10.664062 17.601562 C 10.460938 17.113281 10.308594 16.609375 10.203125 16.089844 C 10.101562 15.570312 10.046875 15.046875 10.046875 14.515625 C 10.046875 13.988281 10.101562 13.460938 10.203125 12.941406 C 10.308594 12.421875 10.460938 11.917969 10.664062 11.429688 C 10.863281 10.941406 11.113281 10.476562 11.40625 10.035156 C 11.703125 9.59375 12.035156 9.1875 12.410156 8.8125 C 12.785156 8.4375 13.191406 8.105469 13.632812 7.8125 C 14.074219 7.515625 14.539062 7.269531 15.027344 7.066406 C 15.515625 6.863281 16.019531 6.710938 16.539062 6.605469 C 17.058594 6.503906 17.582031 6.453125 18.113281 6.453125 C 18.644531 6.453125 19.167969 6.503906 19.6875 6.605469 C 20.207031 6.710938 20.710938 6.863281 21.199219 7.066406 C 21.6875 7.269531 22.152344 7.515625 22.59375 7.8125 C 23.035156 8.105469 23.441406 8.4375 23.816406 8.8125 C 24.191406 9.1875 24.523438 9.59375 24.820312 10.035156 C 25.113281 10.476562 25.359375 10.941406 25.5625 11.429688 C 25.765625 11.917969 25.917969 12.421875 26.023438 12.941406 C 26.125 13.460938 26.179688 13.988281 26.179688 14.515625 Z M 26.179688 14.515625 " fill-opacity="1" fill-rule="nonzero"/></svg>