<svg xmlns="http://www.w3.org/2000/svg" xmlns:xlink="http://www.w3.org/1999/xlink" width="48" zoomAndPan="magnify" viewBox="0 0 36 30.000001" height="40" preserveAspectRatio="xMidYMid meet" version="1.0"><defs><clipPath id="79a93d87c6"><path d="M 1.441406 0.351562 L 22.222656 0.351562 L 22.222656 28.921875 L 1.441406 28.921875 Z M 1.441406 0.351562 " clip-rule="nonzero"/></clipPath><clipPath id="7ecf2b52b1"><path d="M 14 0 L 34.78125 0 L 34.78125 20.78125 L 14 20.78125 Z M 14 0 " clip-rule="nonzero"/></clipPath></defs><g clip-path="url(#79a93d87c6)"><path fill="#0f3d3e" d="M 22.222656 2.546875 C 22.222656 1.335938 21.238281 0.351562 20.023438 0.351562 L 3.644531 0.351562 C 2.425781 0.351562 1.441406 1.335938 1.441406 2.546875 L 1.441406 26.726562 C 1.441406 27.9375 2.425781 28.921875 3.644531 28.921875 L 20.023438 28.921875 C 21.238281 28.921875 22.222656 27.9375 22.222656 26.726562 Z M 19.210938 22.304688 L 4.152344 22.304688 L 4.152344 20.800781 L 19.210938 20.800781 Z M 19.210938 18.09375 L 4.152344 18.09375 L 4.152344 16.890625 L 19.210938 16.890625 Z M 19.210938 14.1875 L 4.152344 14.1875 L 4.152344 12.683594 L 19.210938 12.683594 Z M 19.210938 9.976562 L 4.152344 9.976562 L 4.152344 8.472656 L 19.210938 8.472656 Z M 19.210938 5.765625 L 4.152344 5.765625 L 4.152344 4.261719 L 19.210938 4.261719 Z M 19.210938 5.765625 " fill-opacity="1" fill-rule="nonzero"/></g><g clip-path="url(#7ecf2b52b1)"><path fill="#0f3d3e" d="M 14 16.476562 L 14 20.78125 L 18.304688 20.78125 L 31.007812 8.078125 L 26.703125 3.769531 Z M 34.328125 4.757812 C 34.773438 4.3125 34.773438 3.582031 34.328125 3.132812 L 31.644531 0.453125 C 31.199219 0.00390625 30.46875 0.00390625 30.019531 0.453125 L 27.921875 2.554688 L 32.226562 6.859375 Z M 34.328125 4.757812 " fill-opacity="1" fill-rule="nonzero"/></g></svg>