<svg xmlns="http://www.w3.org/2000/svg" xmlns:xlink="http://www.w3.org/1999/xlink" width="48" zoomAndPan="magnify" viewBox="0 0 36 30.000001" height="40" preserveAspectRatio="xMidYMid meet" version="1.0"><defs><clipPath id="5efe3052cb"><path d="M 3.503906 0.0390625 L 32.535156 0.0390625 L 32.535156 29.03125 L 3.503906 29.03125 Z M 3.503906 0.0390625 " clip-rule="nonzero"/></clipPath></defs><g clip-path="url(#5efe3052cb)"><path fill="#0f3d3e" d="M 18.019531 0.0390625 C 10.046875 0.0390625 3.503906 6.582031 3.503906 14.558594 C 3.503906 22.53125 10.046875 29.074219 18.019531 29.074219 C 25.996094 29.074219 32.535156 22.53125 32.535156 14.558594 C 32.535156 6.582031 26.070312 0.0390625 18.019531 0.0390625 Z M 24.699219 21.019531 C 24.40625 21.445312 23.902344 21.601562 23.460938 21.3125 C 20.050781 19.203125 15.773438 18.777344 10.683594 19.9375 C 10.179688 20.09375 9.738281 19.722656 9.601562 19.28125 C 9.445312 18.777344 9.8125 18.332031 10.257812 18.195312 C 15.773438 16.957031 20.574219 17.460938 24.347656 19.78125 C 24.851562 19.996094 24.910156 20.574219 24.699219 21.019531 Z M 26.441406 17.015625 C 26.070312 17.519531 25.414062 17.75 24.910156 17.382812 C 21 14.984375 15.039062 14.265625 10.472656 15.71875 C 9.890625 15.871094 9.234375 15.5625 9.097656 14.984375 C 8.941406 14.402344 9.253906 13.742188 9.832031 13.609375 C 15.117188 12.019531 21.660156 12.816406 26.148438 15.5625 C 26.59375 15.796875 26.808594 16.511719 26.441406 17.015625 Z M 26.59375 12.96875 C 21.949219 10.222656 14.1875 9.910156 9.753906 11.304688 C 9.019531 11.519531 8.304688 11.09375 8.089844 10.433594 C 7.878906 9.699219 8.304688 8.984375 8.960938 8.769531 C 14.109375 7.242188 22.609375 7.53125 27.96875 10.722656 C 28.625 11.09375 28.839844 11.964844 28.472656 12.601562 C 28.105469 13.105469 27.234375 13.316406 26.59375 12.96875 Z M 26.59375 12.96875 " fill-opacity="1" fill-rule="nonzero"/></g></svg>