<svg xmlns="http://www.w3.org/2000/svg" xmlns:xlink="http://www.w3.org/1999/xlink" width="48" zoomAndPan="magnify" viewBox="0 0 36 30.000001" height="40" preserveAspectRatio="xMidYMid meet" version="1.0"><defs><clipPath id="ae380900d5"><path d="M 3.746094 0.0703125 L 32.054688 0.0703125 L 32.054688 29.03125 L 3.746094 29.03125 Z M 3.746094 0.0703125 " clip-rule="nonzero"/></clipPath></defs><g clip-path="url(#ae380900d5)"><path fill="#0f3d3e" d="M 30.511719 20.617188 C 29.613281 20.039062 28.367188 19.503906 27.007812 19.105469 C 25.65625 18.710938 24.332031 18.496094 23.269531 18.496094 C 21.832031 18.496094 20.988281 18.894531 20.753906 19.6875 C 20.753906 19.691406 20.664062 20.015625 20.550781 20.402344 C 20.542969 20.421875 20.539062 20.449219 20.53125 20.472656 L 20.28125 21.355469 C 19.992188 21.273438 19.730469 21.113281 19.519531 20.890625 L 11.910156 12.90625 C 11.605469 12.585938 11.441406 12.160156 11.445312 11.710938 C 11.496094 11.695312 11.546875 11.679688 11.605469 11.664062 C 11.886719 11.695312 12.144531 11.644531 12.332031 11.53125 L 13.441406 10.914062 C 13.738281 10.746094 13.988281 10.605469 14.011719 10.59375 C 14.042969 10.582031 14.070312 10.566406 14.09375 10.550781 C 15.566406 9.722656 14.566406 6.652344 13.261719 4.273438 C 12.875 3.574219 10.863281 0.0703125 9.058594 0.0703125 C 8.835938 0.0703125 8.625 0.125 8.433594 0.226562 C 8.421875 0.234375 8.414062 0.238281 8.402344 0.246094 L 7.789062 0.585938 C 7.769531 0.597656 7.746094 0.613281 7.722656 0.628906 C 6.816406 1.132812 6.160156 1.671875 5.460938 2.492188 C 5.007812 3.023438 4.636719 3.601562 4.355469 4.207031 C 3.785156 5.433594 3.617188 6.757812 3.886719 7.941406 C 4.253906 11.5 7.050781 16.25 11.5625 20.984375 C 15.804688 25.4375 20.757812 28.519531 24.488281 29.03125 C 24.851562 29.078125 25.1875 29.101562 25.519531 29.101562 C 26.652344 29.101562 27.660156 28.804688 28.59375 28.1875 C 30.054688 27.226562 31.027344 25.867188 31.742188 23.789062 C 31.753906 23.761719 31.765625 23.722656 31.773438 23.683594 L 31.878906 23.320312 C 31.925781 23.160156 31.957031 23.042969 31.960938 23.035156 C 31.96875 23.011719 31.976562 22.988281 31.984375 22.960938 C 32.210938 22.175781 31.714844 21.386719 30.511719 20.617188 Z M 30.511719 20.617188 " fill-opacity="1" fill-rule="nonzero"/></g></svg>