<svg xmlns="http://www.w3.org/2000/svg" xmlns:xlink="http://www.w3.org/1999/xlink" width="48" zoomAndPan="magnify" viewBox="0 0 36 30.000001" height="40" preserveAspectRatio="xMidYMid meet" version="1.0"><defs><clipPath id="5ad0e21f26"><path d="M 7.902344 0.183594 L 28.226562 0.183594 L 28.226562 29.03125 L 7.902344 29.03125 Z M 7.902344 0.183594 " clip-rule="nonzero"/></clipPath></defs><g clip-path="url(#5ad0e21f26)"><path fill="#0f3d3e" d="M 18.0625 0.183594 C 12.453125 0.183594 7.902344 4.734375 7.902344 10.34375 C 7.902344 17.964844 18.0625 29.214844 18.0625 29.214844 C 18.0625 29.214844 28.226562 17.964844 28.226562 10.34375 C 28.226562 4.734375 23.675781 0.183594 18.0625 0.183594 Z M 18.0625 13.972656 C 16.0625 13.972656 14.433594 12.347656 14.433594 10.34375 C 14.433594 8.339844 16.0625 6.714844 18.0625 6.714844 C 20.066406 6.714844 21.691406 8.339844 21.691406 10.34375 C 21.691406 12.347656 20.066406 13.972656 18.0625 13.972656 Z M 18.0625 13.972656 " fill-opacity="1" fill-rule="nonzero"/></g></svg>