<svg xmlns="http://www.w3.org/2000/svg" xmlns:xlink="http://www.w3.org/1999/xlink" width="48" zoomAndPan="magnify" viewBox="0 0 36 30.000001" height="40" preserveAspectRatio="xMidYMid meet" version="1.0"><defs><clipPath id="c4c1f4aa46"><path d="M 11.34375 0 L 24.40625 0 L 24.40625 29 L 11.34375 29 Z M 11.34375 0 " clip-rule="nonzero"/></clipPath></defs><g clip-path="url(#c4c1f4aa46)"><path fill="#0f3d3e" d="M 24.425781 9.441406 L 19.964844 9.441406 L 19.964844 6.464844 C 19.964844 5.347656 20.695312 5.089844 21.207031 5.089844 C 21.71875 5.089844 24.355469 5.089844 24.355469 5.089844 L 24.355469 0.175781 L 20.019531 0.160156 C 15.210938 0.160156 14.113281 3.824219 14.113281 6.167969 L 14.113281 9.441406 L 11.332031 9.441406 L 11.332031 14.503906 L 14.113281 14.503906 C 14.113281 21 14.113281 28.828125 14.113281 28.828125 L 19.964844 28.828125 C 19.964844 28.828125 19.964844 20.921875 19.964844 14.503906 L 23.914062 14.503906 Z M 24.425781 9.441406 " fill-opacity="1" fill-rule="nonzero"/></g></svg>