<svg xmlns="http://www.w3.org/2000/svg" xmlns:xlink="http://www.w3.org/1999/xlink" width="48" zoomAndPan="magnify" viewBox="0 0 36 30.000001" height="40" preserveAspectRatio="xMidYMid meet" version="1.0"><defs><clipPath id="8cd3181e95"><path d="M 4.9375 0.00390625 L 31.066406 0.00390625 L 31.066406 29.03125 L 4.9375 29.03125 Z M 4.9375 0.00390625 " clip-rule="nonzero"/></clipPath></defs><g clip-path="url(#8cd3181e95)"><path fill="#0f3d3e" d="M 24.578125 14.605469 L 23.039062 13.066406 L 15.957031 20.152344 L 12.878906 17.074219 L 11.339844 18.613281 L 15.957031 23.226562 Z M 28.164062 2.90625 L 26.710938 2.90625 L 26.710938 0.00390625 L 23.808594 0.00390625 L 23.808594 2.90625 L 12.195312 2.90625 L 12.195312 0.00390625 L 9.292969 0.00390625 L 9.292969 2.90625 L 7.839844 2.90625 C 6.238281 2.90625 4.953125 4.207031 4.953125 5.808594 L 4.9375 26.132812 C 4.9375 27.734375 6.238281 29.035156 7.839844 29.035156 L 28.164062 29.035156 C 29.765625 29.035156 31.066406 27.734375 31.066406 26.132812 L 31.066406 5.808594 C 31.066406 4.207031 29.765625 2.90625 28.164062 2.90625 Z M 28.164062 26.132812 L 7.839844 26.132812 L 7.839844 10.164062 L 28.164062 10.164062 Z M 28.164062 26.132812 " fill-opacity="1" fill-rule="nonzero"/></g></svg>