<svg xmlns="http://www.w3.org/2000/svg" xmlns:xlink="http://www.w3.org/1999/xlink" width="48" zoomAndPan="magnify" viewBox="0 0 36 30.000001" height="40" preserveAspectRatio="xMidYMid meet" version="1.0"><defs><clipPath id="49691bdad8"><path d="M 1.964844 0.167969 L 33.898438 0.167969 L 33.898438 29.03125 L 1.964844 29.03125 Z M 1.964844 0.167969 " clip-rule="nonzero"/></clipPath></defs><path fill="#0f3d3e" d="M 23.039062 16.296875 C 23.039062 16.632812 23.007812 16.96875 22.941406 17.300781 C 22.875 17.632812 22.78125 17.957031 22.652344 18.269531 C 22.523438 18.582031 22.367188 18.882812 22.179688 19.164062 C 21.992188 19.445312 21.78125 19.707031 21.542969 19.945312 C 21.308594 20.183594 21.046875 20.398438 20.769531 20.585938 C 20.492188 20.773438 20.195312 20.933594 19.886719 21.0625 C 19.578125 21.195312 19.257812 21.292969 18.929688 21.359375 C 18.597656 21.421875 18.265625 21.457031 17.929688 21.457031 C 17.59375 21.457031 17.261719 21.421875 16.933594 21.359375 C 16.605469 21.292969 16.285156 21.195312 15.976562 21.0625 C 15.664062 20.933594 15.371094 20.773438 15.09375 20.585938 C 14.8125 20.398438 14.554688 20.183594 14.316406 19.945312 C 14.082031 19.707031 13.871094 19.445312 13.683594 19.164062 C 13.496094 18.882812 13.339844 18.582031 13.210938 18.269531 C 13.082031 17.957031 12.984375 17.632812 12.921875 17.300781 C 12.855469 16.96875 12.820312 16.632812 12.820312 16.296875 C 12.820312 15.957031 12.855469 15.621094 12.921875 15.289062 C 12.984375 14.957031 13.082031 14.632812 13.210938 14.320312 C 13.339844 14.007812 13.496094 13.710938 13.683594 13.429688 C 13.871094 13.144531 14.082031 12.886719 14.316406 12.644531 C 14.554688 12.40625 14.8125 12.191406 15.09375 12.003906 C 15.371094 11.816406 15.664062 11.65625 15.976562 11.527344 C 16.285156 11.398438 16.605469 11.300781 16.933594 11.234375 C 17.261719 11.167969 17.59375 11.132812 17.929688 11.132812 C 18.265625 11.132812 18.597656 11.167969 18.929688 11.234375 C 19.257812 11.300781 19.578125 11.398438 19.886719 11.527344 C 20.195312 11.65625 20.492188 11.816406 20.769531 12.003906 C 21.046875 12.191406 21.308594 12.40625 21.542969 12.644531 C 21.78125 12.886719 21.992188 13.144531 22.179688 13.429688 C 22.367188 13.710938 22.523438 14.007812 22.652344 14.320312 C 22.78125 14.632812 22.875 14.957031 22.941406 15.289062 C 23.007812 15.621094 23.039062 15.957031 23.039062 16.296875 Z M 23.039062 16.296875 " fill-opacity="1" fill-rule="nonzero"/><g clip-path="url(#49691bdad8)"><path fill="#0f3d3e" d="M 13.140625 0.167969 L 10.21875 3.390625 L 5.15625 3.390625 C 3.394531 3.390625 1.964844 4.835938 1.964844 6.617188 L 1.964844 25.972656 C 1.964844 27.753906 3.394531 29.199219 5.15625 29.199219 L 30.703125 29.199219 C 32.46875 29.199219 33.898438 27.753906 33.898438 25.972656 L 33.898438 6.617188 C 33.898438 4.835938 32.46875 3.390625 30.703125 3.390625 L 25.644531 3.390625 L 22.722656 0.167969 Z M 17.929688 24.359375 C 13.523438 24.359375 9.949219 20.746094 9.949219 16.296875 C 9.949219 11.84375 13.523438 8.230469 17.929688 8.230469 C 22.335938 8.230469 25.914062 11.84375 25.914062 16.296875 C 25.914062 20.746094 22.335938 24.359375 17.929688 24.359375 Z M 17.929688 24.359375 " fill-opacity="1" fill-rule="nonzero"/></g></svg>