<svg xmlns="http://www.w3.org/2000/svg" xmlns:xlink="http://www.w3.org/1999/xlink" width="48" zoomAndPan="magnify" viewBox="0 0 36 30.000001" height="40" preserveAspectRatio="xMidYMid meet" version="1.0"><defs><clipPath id="816a91d829"><path d="M 3.484375 0 L 32.515625 0 L 32.515625 29.03125 L 3.484375 29.03125 Z M 3.484375 0 " clip-rule="nonzero"/></clipPath></defs><g clip-path="url(#816a91d829)"><path fill="#0f3d3e" d="M 29.613281 0 L 6.386719 0 C 4.78125 0 3.5 1.300781 3.5 2.902344 L 3.484375 29.03125 L 9.289062 23.226562 L 29.613281 23.226562 C 31.21875 23.226562 32.515625 21.925781 32.515625 20.324219 L 32.515625 2.902344 C 32.515625 1.300781 31.21875 0 29.613281 0 Z M 26.710938 17.417969 L 9.289062 17.417969 L 9.289062 14.515625 L 26.710938 14.515625 Z M 26.710938 13.066406 L 9.289062 13.066406 L 9.289062 10.160156 L 26.710938 10.160156 Z M 26.710938 8.710938 L 9.289062 8.710938 L 9.289062 5.804688 L 26.710938 5.804688 Z M 26.710938 8.710938 " fill-opacity="1" fill-rule="nonzero"/></g></svg>