<svg xmlns="http://www.w3.org/2000/svg" xmlns:xlink="http://www.w3.org/1999/xlink" width="48" zoomAndPan="magnify" viewBox="0 0 36 30.000001" height="40" preserveAspectRatio="xMidYMid meet" version="1.0"><defs><clipPath id="9dd8e85fd1"><path d="M 3.21875 0 L 32.976562 0 L 32.976562 29.03125 L 3.21875 29.03125 Z M 3.21875 0 " clip-rule="nonzero"/></clipPath></defs><g clip-path="url(#9dd8e85fd1)"><path fill="#0f3d3e" d="M 18.097656 0 C 9.941406 0 3.328125 6.085938 3.328125 13.589844 C 3.332031 14.539062 3.441406 15.476562 3.652344 16.402344 C 3.863281 17.328125 4.171875 18.222656 4.578125 19.082031 C 4.984375 19.941406 5.480469 20.746094 6.0625 21.5 C 6.644531 22.253906 7.300781 22.933594 8.035156 23.546875 C 8.566406 24 8.832031 24.578125 8.835938 25.273438 L 8.835938 28.445312 C 8.820312 28.660156 8.90625 28.820312 9.089844 28.929688 C 9.277344 29.039062 9.460938 29.035156 9.640625 28.921875 L 13.074219 27.050781 C 13.574219 26.773438 14.101562 26.695312 14.65625 26.816406 C 15.792969 27.066406 16.945312 27.1875 18.109375 27.1875 C 26.261719 27.1875 32.875 21.101562 32.875 13.597656 C 32.875 6.09375 26.25 0 18.097656 0 Z M 25.523438 12.148438 L 20.097656 18.226562 C 19.949219 18.394531 19.761719 18.488281 19.535156 18.507812 C 19.3125 18.527344 19.113281 18.46875 18.9375 18.332031 L 17.074219 16.875 C 16.679688 16.566406 16.230469 16.367188 15.734375 16.28125 C 15.238281 16.195312 14.75 16.230469 14.273438 16.386719 L 11.304688 17.363281 C 11.125 17.421875 10.945312 17.417969 10.765625 17.359375 C 10.585938 17.296875 10.441406 17.191406 10.335938 17.035156 C 10.230469 16.878906 10.179688 16.707031 10.191406 16.519531 C 10.199219 16.332031 10.265625 16.164062 10.386719 16.019531 L 15.988281 9.40625 C 16.140625 9.222656 16.339844 9.125 16.578125 9.109375 C 16.816406 9.089844 17.027344 9.164062 17.207031 9.324219 L 19.089844 11.003906 C 19.492188 11.367188 19.957031 11.605469 20.488281 11.714844 C 21.019531 11.824219 21.542969 11.792969 22.058594 11.625 L 24.621094 10.769531 C 24.808594 10.703125 24.992188 10.699219 25.179688 10.761719 C 25.367188 10.824219 25.515625 10.9375 25.625 11.101562 C 25.730469 11.265625 25.777344 11.445312 25.757812 11.640625 C 25.738281 11.835938 25.660156 12.007812 25.523438 12.148438 Z M 25.523438 12.148438 " fill-opacity="1" fill-rule="nonzero"/></g></svg>