<svg xmlns="http://www.w3.org/2000/svg" xmlns:xlink="http://www.w3.org/1999/xlink" width="200" zoomAndPan="magnify" viewBox="0 0 150 30.000001" height="40" preserveAspectRatio="xMidYMid meet" version="1.0"><defs><g/><clipPath id="d97ac86b6f"><path d="M 25 0 L 48 0 L 48 24 L 25 24 Z M 25 0 " clip-rule="nonzero"/></clipPath><clipPath id="fd3ab4e06d"><path d="M 25.78125 0.0078125 L 47.554688 0 L 47.5625 23.953125 L 25.789062 23.957031 Z M 25.78125 0.0078125 " clip-rule="nonzero"/></clipPath><clipPath id="1b521be42c"><path d="M 24.699219 0.0078125 L 48.652344 0 L 48.65625 23.953125 L 24.707031 23.957031 Z M 24.699219 0.0078125 " clip-rule="nonzero"/></clipPath></defs><g clip-path="url(#d97ac86b6f)"><g clip-path="url(#fd3ab4e06d)"><g clip-path="url(#1b521be42c)"><path fill="#0f3d3e" d="M 24.699219 0.0078125 L 48.652344 0 L 48.65625 23.953125 L 24.707031 23.957031 Z M 24.699219 0.0078125 " fill-opacity="1" fill-rule="nonzero"/></g></g></g><g fill="#100f0f" fill-opacity="1"><g transform="translate(48.736237, 20.419729)"><g><path d="M 1.953125 -1.296875 C 0.960938 -2.378906 0.46875 -3.703125 0.46875 -5.265625 C 0.46875 -6.828125 0.960938 -8.148438 1.953125 -9.234375 C 2.941406 -10.316406 4.195312 -10.859375 5.71875 -10.859375 C 7.113281 -10.859375 8.265625 -10.421875 9.171875 -9.546875 L 9.171875 -10.546875 L 12.8125 -10.546875 L 12.8125 0 L 9.21875 0 L 9.21875 -1.1875 L 9.171875 -1.1875 C 8.265625 -0.1875 7.113281 0.3125 5.71875 0.3125 C 4.195312 0.3125 2.941406 -0.222656 1.953125 -1.296875 Z M 5.046875 -7.046875 C 4.578125 -6.585938 4.34375 -5.992188 4.34375 -5.265625 C 4.34375 -4.535156 4.566406 -3.941406 5.015625 -3.484375 C 5.472656 -3.023438 6.070312 -2.796875 6.8125 -2.796875 C 7.519531 -2.796875 8.101562 -3.023438 8.5625 -3.484375 C 9.019531 -3.953125 9.25 -4.546875 9.25 -5.265625 C 9.25 -5.992188 9.007812 -6.585938 8.53125 -7.046875 C 8.0625 -7.515625 7.488281 -7.75 6.8125 -7.75 C 6.101562 -7.75 5.515625 -7.515625 5.046875 -7.046875 Z M 5.046875 -7.046875 "/></g></g></g><g fill="#100f0f" fill-opacity="1"><g transform="translate(62.779245, 20.419729)"><g><path d="M 1.234375 0 L 1.234375 -17.6875 L 4.875 -17.6875 L 4.875 0 Z M 1.234375 0 "/></g></g></g><g fill="#100f0f" fill-opacity="1"><g transform="translate(68.885794, 20.419729)"><g><path d="M 1.234375 0 L 1.234375 -17.6875 L 4.875 -17.6875 L 4.875 -9.4375 L 4.921875 -9.4375 C 5.859375 -10.382812 6.863281 -10.859375 7.9375 -10.859375 C 8.457031 -10.859375 8.972656 -10.789062 9.484375 -10.65625 C 10.003906 -10.519531 10.5 -10.304688 10.96875 -10.015625 C 11.4375 -9.722656 11.816406 -9.3125 12.109375 -8.78125 C 12.410156 -8.257812 12.5625 -7.648438 12.5625 -6.953125 L 12.5625 0 L 8.921875 0 L 8.921875 -5.96875 C 8.921875 -6.507812 8.742188 -6.984375 8.390625 -7.390625 C 8.046875 -7.804688 7.59375 -8.015625 7.03125 -8.015625 C 6.476562 -8.015625 5.976562 -7.800781 5.53125 -7.375 C 5.09375 -6.957031 4.875 -6.488281 4.875 -5.96875 L 4.875 0 Z M 1.234375 0 "/></g></g></g><g fill="#100f0f" fill-opacity="1"><g transform="translate(82.476469, 20.419729)"><g><path d="M 1.953125 -1.296875 C 0.960938 -2.378906 0.46875 -3.703125 0.46875 -5.265625 C 0.46875 -6.828125 0.960938 -8.148438 1.953125 -9.234375 C 2.941406 -10.316406 4.195312 -10.859375 5.71875 -10.859375 C 7.113281 -10.859375 8.265625 -10.421875 9.171875 -9.546875 L 9.171875 -10.546875 L 12.8125 -10.546875 L 12.8125 0 L 9.21875 0 L 9.21875 -1.1875 L 9.171875 -1.1875 C 8.265625 -0.1875 7.113281 0.3125 5.71875 0.3125 C 4.195312 0.3125 2.941406 -0.222656 1.953125 -1.296875 Z M 5.046875 -7.046875 C 4.578125 -6.585938 4.34375 -5.992188 4.34375 -5.265625 C 4.34375 -4.535156 4.566406 -3.941406 5.015625 -3.484375 C 5.472656 -3.023438 6.070312 -2.796875 6.8125 -2.796875 C 7.519531 -2.796875 8.101562 -3.023438 8.5625 -3.484375 C 9.019531 -3.953125 9.25 -4.546875 9.25 -5.265625 C 9.25 -5.992188 9.007812 -6.585938 8.53125 -7.046875 C 8.0625 -7.515625 7.488281 -7.75 6.8125 -7.75 C 6.101562 -7.75 5.515625 -7.515625 5.046875 -7.046875 Z M 5.046875 -7.046875 "/></g></g></g><g fill="#100f0f" fill-opacity="1"><g transform="translate(96.519477, 20.419729)"><g><path d="M 1.234375 0 L 1.234375 -17.6875 L 4.875 -17.6875 L 4.875 0 Z M 1.234375 0 "/></g></g></g><g fill="#100f0f" fill-opacity="1"><g transform="translate(102.626026, 20.419729)"><g><path d="M 1.234375 0 L 1.234375 -17.6875 L 4.875 -17.6875 L 4.875 0 Z M 1.234375 0 "/></g></g></g><g fill="#100f0f" fill-opacity="1"><g transform="translate(108.732575, 20.419729)"><g><path d="M 1.953125 -1.296875 C 0.960938 -2.378906 0.46875 -3.703125 0.46875 -5.265625 C 0.46875 -6.828125 0.960938 -8.148438 1.953125 -9.234375 C 2.941406 -10.316406 4.195312 -10.859375 5.71875 -10.859375 C 7.113281 -10.859375 8.265625 -10.421875 9.171875 -9.546875 L 9.171875 -10.546875 L 12.8125 -10.546875 L 12.8125 0 L 9.21875 0 L 9.21875 -1.1875 L 9.171875 -1.1875 C 8.265625 -0.1875 7.113281 0.3125 5.71875 0.3125 C 4.195312 0.3125 2.941406 -0.222656 1.953125 -1.296875 Z M 5.046875 -7.046875 C 4.578125 -6.585938 4.34375 -5.992188 4.34375 -5.265625 C 4.34375 -4.535156 4.566406 -3.941406 5.015625 -3.484375 C 5.472656 -3.023438 6.070312 -2.796875 6.8125 -2.796875 C 7.519531 -2.796875 8.101562 -3.023438 8.5625 -3.484375 C 9.019531 -3.953125 9.25 -4.546875 9.25 -5.265625 C 9.25 -5.992188 9.007812 -6.585938 8.53125 -7.046875 C 8.0625 -7.515625 7.488281 -7.75 6.8125 -7.75 C 6.101562 -7.75 5.515625 -7.515625 5.046875 -7.046875 Z M 5.046875 -7.046875 "/></g></g></g><g fill="#ffffff" fill-opacity="1"><g transform="translate(28.654365, 20.604874)"><g><path d="M 6.53125 0 L -0.578125 -16.96875 L 3.78125 -16.96875 L 8.0625 -5.8125 L 12.34375 -16.96875 L 16.703125 -16.96875 L 9.578125 0 Z M 6.53125 0 "/></g></g></g><g fill="#000000" fill-opacity="1"><g transform="translate(66.721032, 26.758137)"><g><path d="M 4.359375 0 L 4.34375 -2.546875 L 3.109375 -0.453125 L 2.65625 -0.453125 L 1.421875 -2.484375 L 1.421875 0 L 0.5 0 L 0.5 -4.234375 L 1.3125 -4.234375 L 2.890625 -1.609375 L 4.453125 -4.234375 L 5.265625 -4.234375 L 5.265625 0 Z M 4.359375 0 "/></g></g></g><g fill="#000000" fill-opacity="1"><g transform="translate(72.497644, 26.758137)"><g><path d="M 3.78125 -0.78125 L 3.78125 0 L 0.5 0 L 0.5 -4.234375 L 3.703125 -4.234375 L 3.703125 -3.453125 L 1.46875 -3.453125 L 1.46875 -2.53125 L 3.4375 -2.53125 L 3.4375 -1.765625 L 1.46875 -1.765625 L 1.46875 -0.78125 Z M 3.78125 -0.78125 "/></g></g></g><g fill="#000000" fill-opacity="1"><g transform="translate(76.556397, 26.758137)"><g><path d="M 4.390625 -4.234375 L 4.390625 0 L 3.578125 0 L 1.46875 -2.5625 L 1.46875 0 L 0.5 0 L 0.5 -4.234375 L 1.3125 -4.234375 L 3.421875 -1.65625 L 3.421875 -4.234375 Z M 4.390625 -4.234375 "/></g></g></g><g fill="#000000" fill-opacity="1"><g transform="translate(81.443837, 26.758137)"><g/></g></g><g fill="#000000" fill-opacity="1"><g transform="translate(83.155651, 26.758137)"><g><path d="M 1.890625 0.078125 C 1.554688 0.078125 1.234375 0.03125 0.921875 -0.0625 C 0.609375 -0.15625 0.359375 -0.273438 0.171875 -0.421875 L 0.5 -1.15625 C 0.6875 -1.019531 0.90625 -0.910156 1.15625 -0.828125 C 1.40625 -0.753906 1.65625 -0.71875 1.90625 -0.71875 C 2.175781 -0.71875 2.378906 -0.757812 2.515625 -0.84375 C 2.648438 -0.925781 2.71875 -1.035156 2.71875 -1.171875 C 2.71875 -1.265625 2.675781 -1.34375 2.59375 -1.40625 C 2.519531 -1.476562 2.421875 -1.535156 2.296875 -1.578125 C 2.171875 -1.617188 2.003906 -1.664062 1.796875 -1.71875 C 1.472656 -1.789062 1.207031 -1.863281 1 -1.9375 C 0.800781 -2.019531 0.625 -2.144531 0.46875 -2.3125 C 0.320312 -2.476562 0.25 -2.703125 0.25 -2.984375 C 0.25 -3.234375 0.316406 -3.457031 0.453125 -3.65625 C 0.585938 -3.851562 0.785156 -4.007812 1.046875 -4.125 C 1.316406 -4.25 1.644531 -4.3125 2.03125 -4.3125 C 2.300781 -4.3125 2.566406 -4.273438 2.828125 -4.203125 C 3.085938 -4.140625 3.3125 -4.050781 3.5 -3.9375 L 3.203125 -3.1875 C 2.816406 -3.40625 2.425781 -3.515625 2.03125 -3.515625 C 1.757812 -3.515625 1.554688 -3.46875 1.421875 -3.375 C 1.296875 -3.289062 1.234375 -3.175781 1.234375 -3.03125 C 1.234375 -2.882812 1.304688 -2.773438 1.453125 -2.703125 C 1.609375 -2.640625 1.835938 -2.570312 2.140625 -2.5 C 2.460938 -2.425781 2.726562 -2.347656 2.9375 -2.265625 C 3.144531 -2.191406 3.320312 -2.070312 3.46875 -1.90625 C 3.613281 -1.738281 3.6875 -1.515625 3.6875 -1.234375 C 3.6875 -0.992188 3.617188 -0.773438 3.484375 -0.578125 C 3.347656 -0.378906 3.144531 -0.21875 2.875 -0.09375 C 2.601562 0.0195312 2.273438 0.078125 1.890625 0.078125 Z M 1.890625 0.078125 "/></g></g></g><g fill="#000000" fill-opacity="1"><g transform="translate(87.014789, 26.758137)"><g><path d="M 1.375 -3.4375 L 0.03125 -3.4375 L 0.03125 -4.234375 L 3.71875 -4.234375 L 3.71875 -3.4375 L 2.359375 -3.4375 L 2.359375 0 L 1.375 0 Z M 1.375 -3.4375 "/></g></g></g><g fill="#000000" fill-opacity="1"><g transform="translate(90.752949, 26.758137)"><g><path d="M 2.546875 0.078125 C 2.109375 0.078125 1.710938 -0.015625 1.359375 -0.203125 C 1.003906 -0.398438 0.726562 -0.664062 0.53125 -1 C 0.332031 -1.332031 0.234375 -1.703125 0.234375 -2.109375 C 0.234375 -2.523438 0.332031 -2.898438 0.53125 -3.234375 C 0.726562 -3.566406 1.003906 -3.828125 1.359375 -4.015625 C 1.710938 -4.210938 2.109375 -4.3125 2.546875 -4.3125 C 2.984375 -4.3125 3.378906 -4.210938 3.734375 -4.015625 C 4.085938 -3.828125 4.363281 -3.566406 4.5625 -3.234375 C 4.769531 -2.898438 4.875 -2.523438 4.875 -2.109375 C 4.875 -1.703125 4.769531 -1.332031 4.5625 -1 C 4.363281 -0.664062 4.085938 -0.398438 3.734375 -0.203125 C 3.378906 -0.015625 2.984375 0.078125 2.546875 0.078125 Z M 2.546875 -0.765625 C 2.796875 -0.765625 3.019531 -0.820312 3.21875 -0.9375 C 3.425781 -1.050781 3.585938 -1.207031 3.703125 -1.40625 C 3.816406 -1.613281 3.875 -1.847656 3.875 -2.109375 C 3.875 -2.378906 3.816406 -2.613281 3.703125 -2.8125 C 3.585938 -3.019531 3.425781 -3.179688 3.21875 -3.296875 C 3.019531 -3.410156 2.796875 -3.46875 2.546875 -3.46875 C 2.296875 -3.46875 2.070312 -3.410156 1.875 -3.296875 C 1.675781 -3.179688 1.519531 -3.019531 1.40625 -2.8125 C 1.289062 -2.613281 1.234375 -2.378906 1.234375 -2.109375 C 1.234375 -1.847656 1.289062 -1.613281 1.40625 -1.40625 C 1.519531 -1.207031 1.675781 -1.050781 1.875 -0.9375 C 2.070312 -0.820312 2.296875 -0.765625 2.546875 -0.765625 Z M 2.546875 -0.765625 "/></g></g></g><g fill="#000000" fill-opacity="1"><g transform="translate(95.858141, 26.758137)"><g><path d="M 3.203125 0 L 2.375 -1.171875 L 1.484375 -1.171875 L 1.484375 0 L 0.5 0 L 0.5 -4.234375 L 2.328125 -4.234375 C 2.703125 -4.234375 3.023438 -4.171875 3.296875 -4.046875 C 3.578125 -3.921875 3.789062 -3.742188 3.9375 -3.515625 C 4.09375 -3.285156 4.171875 -3.015625 4.171875 -2.703125 C 4.171875 -2.378906 4.09375 -2.101562 3.9375 -1.875 C 3.789062 -1.65625 3.578125 -1.484375 3.296875 -1.359375 L 4.25 0 Z M 3.1875 -2.703125 C 3.1875 -2.929688 3.109375 -3.109375 2.953125 -3.234375 C 2.796875 -3.367188 2.570312 -3.4375 2.28125 -3.4375 L 1.484375 -3.4375 L 1.484375 -1.953125 L 2.28125 -1.953125 C 2.570312 -1.953125 2.796875 -2.015625 2.953125 -2.140625 C 3.109375 -2.273438 3.1875 -2.460938 3.1875 -2.703125 Z M 3.1875 -2.703125 "/></g></g></g><g fill="#000000" fill-opacity="1"><g transform="translate(100.304017, 26.758137)"><g><path d="M 3.78125 -0.78125 L 3.78125 0 L 0.5 0 L 0.5 -4.234375 L 3.703125 -4.234375 L 3.703125 -3.453125 L 1.46875 -3.453125 L 1.46875 -2.53125 L 3.4375 -2.53125 L 3.4375 -1.765625 L 1.46875 -1.765625 L 1.46875 -0.78125 Z M 3.78125 -0.78125 "/></g></g></g></svg>